<svg width="773" height="588" viewBox="0 0 773 588" fill="none" xmlns="http://www.w3.org/2000/svg">
<g id="piggy_bank 1" clip-path="url(#clip0)">
<path id="Vector" opacity="0.18" d="M30.0945 267.633C40.8019 284.197 54.3619 295.668 59.5296 316.58C64.8213 337.865 63.2503 361.075 56.8424 381.945C48.7808 408.261 34.5181 433.149 32.8851 460.624C29.7845 512.614 74.6191 557.751 124.415 572.721C181.776 590.092 239.819 571.789 297.284 579.119C360.35 587.152 428.728 590.651 492.125 585.765C547.171 581.5 610.568 577.586 656.354 543.568C733.29 486.381 765.04 413.127 772.771 320.534C775.561 287.179 752.452 257.881 741.599 226.203C725.063 178.105 736.7 122.264 713.177 77.127C698.832 49.6102 672.642 29.5056 643.91 17.9109C615.178 6.31608 583.965 2.2165 552.959 0.663628C510.315 -1.40687 466.99 0.994907 426.041 13.0866C403.551 19.7743 381.868 29.3607 358.985 34.1021C319.711 42.1978 296.477 23.3977 260.924 14.4531C221.464 4.51475 180.143 -0.0403373 139.794 7.18569C81.4405 17.5382 25.3403 55.656 6.96408 112.056C-8.43557 159.284 3.01598 222.869 28.5029 265.107C29.0403 265.956 29.5571 266.805 30.0945 267.633Z" fill="#35A0BA"/>
<path id="Vector_2" d="M641.86 370.41C619.758 381.241 610.635 407.968 621.483 430.106C632.331 452.245 659.043 461.413 681.145 450.582C703.247 439.752 712.37 413.025 701.522 390.886C690.674 368.747 663.962 359.58 641.86 370.41Z" fill="#F8C244"/>
<path id="Vector_3" d="M661.523 448.593C682.506 448.593 699.516 431.555 699.516 410.538C699.516 389.52 682.506 372.482 661.523 372.482C640.54 372.482 623.53 389.52 623.53 410.538C623.53 431.555 640.54 448.593 661.523 448.593Z" fill="#E8A825"/>
<path id="moneda" d="M643.746 426.915L647.591 422.174C645.053 420.124 643.147 417.396 642.093 414.306L645.752 412.07C646.692 414.989 648.449 417.577 650.816 419.524C654.185 422.236 657.968 422.133 660.118 419.524C662.267 416.915 661.668 413.871 659.353 409.648C656.107 403.871 654.888 399.295 658.195 395.154C661.502 391.013 666.463 390.558 671.383 393.353L675.207 388.611L678.101 390.972L674.442 395.506C676.548 397.271 678.182 399.534 679.197 402.09L675.496 404.306C674.585 401.791 672.988 399.581 670.887 397.929C667.29 394.988 664.19 396.065 662.619 397.929C660.552 400.372 661.378 403.001 664.086 407.991C667.311 413.871 667.786 418.344 664.417 422.485C662.761 424.473 660.433 425.783 657.876 426.165C655.318 426.547 652.71 425.974 650.547 424.555L646.661 429.379L643.746 426.915Z" fill="#F8C244"/>
<path id="Vector_4" d="M174.708 513.731C145.77 513.317 122.556 503.379 122.722 491.598C122.722 490.293 121.75 482.881 122.308 481.701C126.877 471.783 149.635 470.624 175.308 470.976C200.567 471.348 221.776 470.976 226.509 480.749C227.212 482.156 227.315 491.681 227.295 493.171C227.15 504.911 203.585 514.146 174.708 513.731Z" fill="#E8A825"/>
<path id="Vector_5" d="M226.916 483.261C227.084 471.462 203.818 461.561 174.95 461.147C146.082 460.733 122.543 469.963 122.374 481.763C122.205 493.562 145.471 503.463 174.34 503.877C203.208 504.291 226.747 495.061 226.916 483.261Z" fill="#F8C244"/>
<path id="Vector_6" d="M219.185 483.151C219.329 473.1 199.504 464.667 174.905 464.314C150.306 463.962 130.248 471.823 130.104 481.874C129.96 491.924 149.786 500.357 174.385 500.71C198.984 501.063 219.042 493.201 219.185 483.151Z" fill="#E8A825"/>
<path id="Vector_7" d="M146.555 480.355L153.666 480.479C153.807 479.548 154.17 478.665 154.724 477.905C155.278 477.144 156.007 476.529 156.849 476.11L161.583 476.856C160.77 477.243 160.063 477.822 159.523 478.543C158.983 479.265 158.626 480.107 158.482 480.997C158.482 483.067 161.355 484.496 165.365 484.537C166.921 484.662 168.486 484.445 169.95 483.901C171.414 483.358 172.741 482.501 173.84 481.39C175.409 479.748 177.329 478.484 179.455 477.691C181.582 476.899 183.86 476.599 186.119 476.814C191.989 476.814 196.454 478.657 197.467 481.328L204.578 481.432V483.212L197.715 483.088C197.612 483.865 197.331 484.608 196.894 485.259C196.456 485.909 195.874 486.449 195.193 486.836L190.542 486.049C191.205 485.678 191.773 485.158 192.2 484.529C192.627 483.9 192.902 483.179 193.002 482.425C193.002 480.231 189.798 479.32 186.945 479.278C185.421 479.2 183.9 479.471 182.496 480.07C181.092 480.669 179.842 481.581 178.843 482.736C175.845 485.676 172.145 487.105 165.779 487.105C160.177 487.105 154.865 485.365 153.81 482.363H146.452L146.555 480.355Z" fill="#F8C244"/>
<path id="Vector_8" d="M199.038 503.669C170.099 503.255 146.886 493.316 147.051 481.556C147.051 480.231 146.08 472.819 146.638 471.638C151.185 461.721 173.964 460.582 199.637 460.913C224.897 461.286 246.105 460.913 250.838 470.707C251.541 472.094 251.645 481.618 251.624 483.13C251.5 494.849 227.915 504.083 199.038 503.669Z" fill="#E8A825"/>
<path id="Vector_9" d="M251.222 473.202C251.391 461.403 228.125 451.501 199.257 451.088C170.388 450.674 146.849 459.904 146.681 471.704C146.512 483.503 169.778 493.404 198.646 493.818C227.514 494.232 251.053 485.002 251.222 473.202Z" fill="#F8C244"/>
<path id="Vector_10" d="M243.492 473.092C243.636 463.041 223.81 454.608 199.211 454.255C174.612 453.903 154.554 461.764 154.411 471.814C154.267 481.865 174.092 490.298 198.691 490.651C223.29 491.003 243.348 483.142 243.492 473.092Z" fill="#E8A825"/>
<path id="Vector_11" d="M170.884 470.313L178.016 470.417C178.157 469.486 178.52 468.603 179.074 467.842C179.628 467.082 180.357 466.466 181.199 466.048L185.933 466.793C185.12 467.181 184.413 467.76 183.873 468.481C183.333 469.202 182.976 470.044 182.832 470.934C182.832 473.005 185.685 474.433 189.695 474.475C191.254 474.601 192.822 474.385 194.29 473.841C195.757 473.298 197.088 472.44 198.19 471.328C199.762 469.69 201.682 468.428 203.808 467.635C205.934 466.843 208.21 466.541 210.469 466.752C216.339 466.752 220.804 468.595 221.796 471.266H228.928V473.067L222.065 472.963C221.955 473.736 221.67 474.473 221.234 475.118C220.797 475.764 220.218 476.302 219.543 476.69L214.892 475.903C215.556 475.536 216.123 475.016 216.547 474.386C216.971 473.756 217.24 473.034 217.331 472.28C217.331 470.085 214.127 469.174 211.295 469.133C209.769 469.051 208.244 469.322 206.839 469.926C205.434 470.529 204.186 471.448 203.193 472.611C200.195 475.531 196.475 476.98 190.108 476.98C184.506 476.98 179.215 475.22 178.16 472.239L170.802 472.114L170.884 470.313Z" fill="#F8C244"/>
<path id="Vector_12" d="M194.78 266.39C246.622 266.39 288.686 278.813 288.686 293.99C288.663 295.515 288.258 297.01 287.508 298.338C280.377 311.506 241.578 321.569 194.759 321.569C147.94 321.569 109.079 311.506 101.989 298.338C101.239 297.01 100.834 295.515 100.811 293.99C100.811 278.73 142.917 266.39 194.78 266.39Z" fill="url(#paint0_linear)"/>
<path id="Vector_13" d="M194.738 275.107C241.557 275.107 280.398 285.17 287.488 298.338C280.356 311.506 241.557 321.569 194.738 321.569C147.919 321.569 109.058 311.506 101.968 298.338C109.079 285.17 147.899 275.107 194.738 275.107Z" fill="url(#paint1_linear)"/>
<path id="Vector_14" opacity="0.19" d="M441.277 550.627C561.146 550.627 658.319 531.318 658.319 507.499C658.319 483.68 561.146 464.371 441.277 464.371C321.408 464.371 224.235 483.68 224.235 507.499C224.235 531.318 321.408 550.627 441.277 550.627Z" fill="url(#paint2_linear)"/>
<path id="Vector_15" d="M259.768 471.203L279.095 379.273L351.443 406.935L336.973 485.076C336.789 486.146 336.54 487.204 336.229 488.244C333.931 496.15 328.591 502.819 321.385 506.783C314.179 510.747 305.697 511.683 297.802 509.383L279.199 503.917C272.447 501.91 266.698 497.429 263.097 491.366C259.496 485.303 258.308 478.105 259.768 471.203Z" fill="#3FCAC2"/>
<path id="Vector_16" d="M259.768 471.203L278.496 382.172L297.471 389.481L279.199 503.917C272.444 501.914 266.692 497.434 263.091 491.37C259.489 485.306 258.303 478.105 259.768 471.203Z" fill="url(#paint3_linear)"/>
<path id="Vector_17" d="M471.208 463.853L471.374 369.873L547.855 381.924L549.674 461.389V464.578C549.066 472.824 545.215 480.491 538.967 485.895C532.72 491.299 524.586 493.998 516.353 493.399L496.964 491.908C489.918 491.378 483.338 488.184 478.555 482.975C473.773 477.766 471.146 470.93 471.208 463.853Z" fill="#3FCAC2"/>
<path id="Vector_18" d="M470.299 414.679C470.299 414.679 470.878 443.976 471.167 463.853C471.477 485.863 492.354 490.977 492.354 490.977L491.176 431.554L470.299 414.679Z" fill="url(#paint4_linear)"/>
<path id="Vector_19" d="M442.311 113.691C554.118 113.691 646.33 180.816 659.828 267.549C646.33 354.303 554.036 421.429 442.311 421.429C330.586 421.429 238.353 354.303 224.855 267.549C238.353 180.92 330.503 113.691 442.311 113.691Z" fill="#489CB0"/>
<path id="Vector_20" d="M620.43 348.112C622.497 345.897 624.357 343.64 626.238 341.301C624.378 343.619 622.435 345.876 620.43 348.112ZM620.43 348.112C622.497 345.897 624.357 343.64 626.238 341.301C624.378 343.619 622.435 345.876 620.43 348.112Z" fill="#489CB0"/>
<path id="Vector_21" d="M661.502 289.559C661.502 349.189 624.502 401.883 567.926 433.686C565.301 435.177 562.655 436.605 559.947 437.972C554.435 440.733 548.765 443.355 542.936 445.84C534.163 449.467 525.191 452.592 516.064 455.198C492.044 462.055 467.183 465.505 442.207 465.447C321.201 465.447 223.098 386.769 223.098 289.455C223.077 282.086 223.637 274.727 224.773 267.446C225.103 269.516 225.476 271.587 225.91 273.657C225.496 271.587 225.124 269.516 224.793 267.446C238.291 180.713 330.441 113.587 442.249 113.587C554.056 113.587 646.309 180.92 659.807 267.549C660.94 274.831 661.507 282.19 661.502 289.559Z" fill="#3FCAC2"/>
<path id="Vector_22" d="M247.366 278.233C247.531 279.289 247.717 280.304 247.883 281.401C247.676 280.345 247.51 279.331 247.345 278.233C246.209 285.514 245.649 292.874 245.671 300.243C245.671 361.24 284.366 414.969 343.133 446.523C271.943 417.536 223.243 358.113 223.243 289.642C223.222 282.273 223.782 274.913 224.917 267.632C225.248 269.703 225.62 271.773 226.054 273.844C225.641 271.773 225.269 269.703 224.938 267.632C238.436 180.899 330.586 113.774 442.393 113.774C484.868 113.465 526.762 123.671 564.35 143.486C532.745 130.715 498.962 124.224 464.883 124.375C352.993 124.292 260.843 191.417 247.366 278.233Z" fill="url(#paint5_linear)"/>
<path id="Vector_23" opacity="0.19" d="M295.487 428.137C350.01 428.137 394.21 383.864 394.21 329.25C394.21 274.636 350.01 230.363 295.487 230.363C240.964 230.363 196.764 274.636 196.764 329.25C196.764 383.864 240.964 428.137 295.487 428.137Z" fill="url(#paint6_linear)"/>
<path id="Vector_24" d="M170.884 227.465C135.579 197.235 131.031 140.918 170.884 137.543C210.737 134.168 220.845 172.141 220.845 172.141C209.869 179.284 170.884 227.506 170.884 227.465Z" fill="#489CB0"/>
<path id="Vector_25" d="M170.884 227.796C135.579 197.567 131.031 141.249 170.884 137.874C210.737 134.5 220.845 172.472 220.845 172.472C209.869 179.616 170.884 227.837 170.884 227.796Z" fill="url(#paint7_linear)"/>
<path id="Vector_26" d="M165.882 220.839C141.284 199.72 138.163 160.484 165.882 158.124C193.601 155.763 200.691 182.245 200.691 182.245C193.043 187.131 165.882 220.798 165.882 220.839Z" fill="#489CB0"/>
<path id="Vector_27" d="M165.882 220.839C141.284 199.72 138.163 160.484 165.882 158.124C193.601 155.763 200.691 182.245 200.691 182.245C193.043 187.131 165.882 220.798 165.882 220.839Z" fill="url(#paint8_linear)"/>
<path id="Vector_28" d="M223.409 268.026C231.883 322.625 271.55 369.48 327.651 396.645L345.903 375.671L364.961 365.753C364.692 366.561 363.824 402.09 366.098 410.496C390.263 418.255 415.51 422.099 440.885 421.884C552.713 421.884 644.904 354.697 658.402 268.005C659.534 275.286 660.101 282.645 660.097 290.014C660.097 387.141 561.911 465.903 440.988 465.903C320.065 465.903 221.879 387.224 221.879 290.014C221.809 282.656 222.321 275.303 223.409 268.026Z" fill="url(#paint9_linear)"/>
<path id="Vector_29" d="M480.179 208.064C480.037 207.766 479.952 207.442 479.931 207.112C479.89 206.823 479.89 206.531 479.931 206.242L480.179 208.064Z" fill="url(#paint10_linear)"/>
<path id="Vector_30" d="M539.174 236.057L538.884 234.235C539.023 234.522 539.114 234.83 539.153 235.146C539.191 235.448 539.198 235.754 539.174 236.057Z" fill="url(#paint11_linear)"/>
<path id="Vector_31" d="M551.369 319.912L550.894 316.744C551.225 317.209 551.431 317.751 551.493 318.318C551.556 318.852 551.514 319.394 551.369 319.912Z" fill="url(#paint12_linear)"/>
<path id="Vector_32" d="M557.426 361.757L556.909 358.113C557.306 358.624 557.563 359.231 557.653 359.873C557.724 360.51 557.646 361.155 557.426 361.757Z" fill="url(#paint13_linear)"/>
<path id="Vector_33" d="M563.627 403.581L563.048 399.44C563.545 399.974 563.85 400.659 563.916 401.386C564.039 402.13 563.938 402.894 563.627 403.581Z" fill="url(#paint14_linear)"/>
<path id="Vector_34" d="M570.014 443.065C570.124 443.867 569.987 444.683 569.621 445.405L568.981 440.953C569.555 441.519 569.92 442.264 570.014 443.065Z" fill="url(#paint15_linear)"/>
<path id="Vector_35" d="M563.627 403.581L563.027 399.544L557.426 361.757L556.888 358.113L551.349 319.912L550.873 316.744L545.23 277.985C545.333 277.57 545.333 277.136 545.23 276.722C545.187 276.269 545.046 275.831 544.817 275.438L539.091 236.099L538.822 234.297L532.91 193.736V193.509L530.202 174.708C530.127 174.241 529.96 173.793 529.711 173.391C529.462 172.989 529.136 172.64 528.752 172.364C528.367 172.089 527.932 171.893 527.472 171.787C527.011 171.681 526.534 171.668 526.068 171.748C525.864 171.774 525.663 171.823 525.469 171.893C524.368 172.182 523.405 172.852 522.751 173.784C522.096 174.716 521.792 175.851 521.893 176.986L523.96 191.749L487.621 201.025L484.892 182.39C484.817 181.922 484.65 181.474 484.402 181.07C484.153 180.667 483.827 180.317 483.443 180.04C483.059 179.763 482.624 179.565 482.163 179.456C481.703 179.348 481.225 179.332 480.758 179.409L480.138 179.574C479.039 179.864 478.078 180.535 477.427 181.467C476.776 182.4 476.477 183.534 476.583 184.668L479.745 206.284L480.014 208.106L485.926 248.708L516.084 455.198C525.213 452.636 534.185 449.546 542.956 445.943L524.105 450.768L519.185 416.956L555.545 407.681L559.948 437.931C562.655 436.564 565.301 435.135 567.926 433.645L563.627 403.581ZM488.965 208.954L525.345 199.679L530.244 233.366L493.863 242.641L488.965 208.954ZM495.021 250.592L531.381 241.296L536.3 274.962L499.941 284.217L495.021 250.592ZM501.077 292.168L537.458 282.913L542.336 316.579L505.894 325.855L501.077 292.168ZM507.155 333.805L543.514 324.509L548.413 358.175L511.95 367.451L507.155 333.805ZM518.11 409.047L513.191 375.402L549.571 366.126L554.47 399.792L518.11 409.047Z" fill="url(#paint16_linear)"/>
<path id="Vector_36" d="M576.195 484.641C576.297 485.508 576.123 486.384 575.699 487.146L575.016 482.405C575.674 482.977 576.094 483.775 576.195 484.641Z" fill="url(#paint17_linear)"/>
<path id="Vector_37" d="M234.963 170.567C313.884 170.567 377.86 233.034 377.86 310.16C377.839 346.008 363.826 380.427 338.813 406.066C322.573 422.772 302.548 435.308 280.439 442.607C258.329 449.907 234.788 451.756 211.813 447.996C188.838 444.236 167.108 434.98 148.467 421.012C129.827 407.043 114.826 388.777 104.738 367.761C96.403 349.751 92.0928 330.136 92.1084 310.284C92.1498 233.158 156.125 170.567 234.963 170.567Z" fill="#3FCAC2"/>
<path id="Vector_38" d="M377.467 298.938C363.287 236.409 306.194 189.678 237.94 189.678C159.019 189.678 95.0437 252.186 95.0437 329.312C95.0437 333.06 95.1884 336.807 95.4984 340.555C93.2593 330.642 92.1361 320.51 92.1498 310.346C92.1498 233.221 156.229 170.733 235.025 170.733C310.019 170.671 371.534 227.071 377.467 298.938Z" fill="url(#paint18_linear)"/>
<path id="Vector_39" d="M204.97 293.431C210.701 293.431 215.347 288.74 215.347 282.954C215.347 277.168 210.701 272.477 204.97 272.477C199.239 272.477 194.594 277.168 194.594 282.954C194.594 288.74 199.239 293.431 204.97 293.431Z" fill="#489CB0"/>
<path id="Vector_40" d="M138.059 284.714C143.79 284.714 148.436 280.023 148.436 274.237C148.436 268.451 143.79 263.76 138.059 263.76C132.328 263.76 127.683 268.451 127.683 274.237C127.683 280.023 132.328 284.714 138.059 284.714Z" fill="#489CB0"/>
<path id="Vector_41" d="M204.97 293.431C210.701 293.431 215.347 288.74 215.347 282.954C215.347 277.168 210.701 272.477 204.97 272.477C199.239 272.477 194.594 277.168 194.594 282.954C194.594 288.74 199.239 293.431 204.97 293.431Z" fill="url(#paint19_linear)"/>
<path id="Vector_42" d="M138.059 284.714C143.79 284.714 148.436 280.023 148.436 274.237C148.436 268.451 143.79 263.76 138.059 263.76C132.328 263.76 127.683 268.451 127.683 274.237C127.683 280.023 132.328 284.714 138.059 284.714Z" fill="url(#paint20_linear)"/>
<path id="Vector_43" d="M136.798 301.009C158.482 305.15 173.448 322.625 170.202 340.141C166.957 357.657 146.762 368.527 125.078 364.49C120.774 363.684 116.601 362.291 112.676 360.349L123.735 300.305C128.101 299.959 132.494 300.195 136.798 301.009Z" fill="#489CB0"/>
<path id="Vector_44" d="M136.798 301.009C158.482 305.15 173.448 322.625 170.202 340.141C166.957 357.657 146.762 368.527 125.078 364.49C120.774 363.684 116.601 362.291 112.676 360.349L123.735 300.305C128.101 299.959 132.494 300.195 136.798 301.009Z" fill="url(#paint21_linear)"/>
<path id="Vector_45" d="M134.795 333.365C137.846 316.731 133.201 301.936 124.421 300.321C115.64 298.705 106.049 310.879 102.998 327.514C99.9472 344.148 104.592 358.942 113.372 360.558C122.153 362.173 131.744 349.999 134.795 333.365Z" fill="#489CB0"/>
<path id="Vector_46" d="M134.795 333.365C137.846 316.731 133.201 301.936 124.421 300.321C115.64 298.705 106.049 310.879 102.998 327.514C99.9472 344.148 104.592 358.942 113.372 360.558C122.153 362.173 131.744 349.999 134.795 333.365Z" fill="url(#paint22_linear)"/>
<path id="Vector_47" d="M125.161 318.67C126.298 319.001 125.884 323.991 124.21 329.851C122.536 335.71 120.262 340.203 119.104 339.81C117.947 339.416 118.402 334.489 120.055 328.629C121.709 322.77 124.024 318.339 125.161 318.67Z" fill="url(#paint23_linear)"/>
<path id="Vector_48" d="M247.841 403.912C327.981 390.371 338.896 406.148 338.896 406.148C322.65 422.87 302.615 435.416 280.492 442.72C258.37 450.024 234.813 451.87 211.826 448.102C188.838 444.333 167.099 435.061 148.455 421.074C129.811 407.087 114.814 388.798 104.738 367.761L104.594 365.194C104.594 365.194 167.722 417.453 247.841 403.912Z" fill="url(#paint24_linear)"/>
<path id="Vector_49" d="M346.771 259.909C382.097 229.701 386.645 173.383 346.771 170.008C306.897 166.633 296.831 204.606 296.831 204.606C307.807 211.749 346.771 259.971 346.771 259.909Z" fill="#489CB0"/>
<path id="Vector_50" d="M345.448 259.909C380.754 229.701 385.301 173.383 345.448 170.008C305.595 166.633 295.487 204.606 295.487 204.606C306.463 211.749 345.448 259.971 345.448 259.909Z" fill="url(#paint25_linear)"/>
<path id="Vector_51" d="M336.25 248.232C360.848 227.133 363.969 187.898 336.25 185.537C308.53 183.177 301.44 209.638 301.44 209.638C309.109 214.648 336.25 248.211 336.25 248.232Z" fill="#489CB0"/>
<path id="Vector_52" d="M336.25 248.232C360.848 227.133 363.969 187.898 336.25 185.537C308.53 183.177 301.44 209.638 301.44 209.638C309.109 214.648 336.25 248.211 336.25 248.232Z" fill="url(#paint26_linear)"/>
<path id="Vector_53" d="M452.005 127.895C497.998 125.286 515.134 132.388 515.134 132.388L544.775 144.21C538.074 142.138 531.206 140.649 524.249 139.759C496.282 135.763 443.034 135.141 383.565 170.63L373.395 166.075L363.059 161.499C363.059 161.499 393.673 131.228 452.005 127.895Z" fill="#25233A"/>
<path id="Vector_54" d="M452.005 127.895C497.998 125.286 515.134 132.388 515.134 132.388L544.775 144.21C538.074 142.138 531.206 140.649 524.249 139.759L509.883 134.934C509.883 134.934 437.701 124.872 398.076 148.952L373.271 166.075L363.121 161.499C363.121 161.499 393.673 131.228 452.005 127.895Z" fill="#489CB0"/>
<path id="Vector_55" d="M452.005 127.895C497.998 125.286 515.134 132.388 515.134 132.388L544.775 144.21C538.074 142.138 531.206 140.649 524.249 139.759L509.883 134.934C509.883 134.934 437.701 124.872 398.076 148.952L373.271 166.075L363.121 161.499C363.121 161.499 393.673 131.228 452.005 127.895Z" fill="url(#paint27_linear)"/>
<path id="Vector_56" d="M363.762 501.536L366.119 407.598L442.311 421.429V500.957C442.335 501.98 442.287 503.004 442.166 504.021C441.406 512.222 437.425 519.785 431.099 525.046C424.773 530.308 416.619 532.836 408.432 532.076H408.225L388.836 530.13C381.82 529.426 375.332 526.084 370.679 520.778C366.026 515.471 363.555 508.596 363.762 501.536Z" fill="#3FCAC2"/>
<path id="Vector_57" d="M557.116 480.831L559.183 394.326L559.348 386.934L635.54 325.647V480.251C635.564 481.289 635.516 482.326 635.395 483.357C634.601 491.589 630.574 499.166 624.201 504.424C617.828 509.681 609.631 512.188 601.413 511.392L582.044 509.466C575.053 508.713 568.603 505.346 563.982 500.038C559.361 494.73 556.909 487.871 557.116 480.831Z" fill="#3FCAC2"/>
<path id="Vector_58" d="M557.095 480.831L559.162 394.326C559.162 394.326 565.363 390.972 571.44 401.718C577.518 412.464 582.065 509.384 582.065 509.384C575.079 508.646 568.628 505.297 564 500.004C559.371 494.711 556.905 487.865 557.095 480.831Z" fill="url(#paint28_linear)"/>
<path id="Vector_59" d="M363.845 501.578L366.098 410.476L386.066 414.161L388.836 530.109C381.846 529.386 375.387 526.044 370.753 520.754C366.119 515.463 363.651 508.613 363.845 501.578Z" fill="url(#paint29_linear)"/>
<path id="Vector_60" d="M680.023 264.899C678.26 264.847 676.536 264.359 675.007 263.477C673.478 262.596 672.19 261.349 671.259 259.847C666.629 252.973 666.009 241.937 669.192 233.221C664.396 230.384 658.278 227.796 654.288 230.011C649.7 232.537 648.666 240.902 648.645 243.925C648.645 245.023 648.21 246.077 647.435 246.853C646.659 247.63 645.608 248.066 644.511 248.066C643.415 248.066 642.363 247.63 641.588 246.853C640.813 246.077 640.377 245.023 640.377 243.925C640.377 242.331 640.646 228.148 650.278 222.785C656.211 219.493 663.9 220.549 673.14 225.974C678.494 219.348 686.721 217.692 695.712 221.232C696.223 221.419 696.691 221.704 697.092 222.072C697.492 222.439 697.816 222.882 698.046 223.375C698.275 223.869 698.405 224.402 698.429 224.946C698.452 225.489 698.369 226.032 698.183 226.543C697.997 227.054 697.712 227.524 697.345 227.925C696.978 228.326 696.536 228.651 696.043 228.88C695.551 229.11 695.018 229.24 694.475 229.264C693.933 229.288 693.391 229.204 692.881 229.018H692.633C687.175 226.823 683.041 227.403 680.003 230.777C692.157 240.509 692.157 250.075 691.454 254.05C691.149 256.57 690.102 258.942 688.445 260.864C686.788 262.785 684.598 264.168 682.153 264.837C681.447 264.93 680.733 264.951 680.023 264.899ZM676.179 238.293C674.711 244.381 675.538 251.4 678.122 255.189C678.845 256.286 679.589 256.742 680.333 256.597C681.148 256.238 681.849 255.662 682.359 254.932C682.87 254.202 683.17 253.345 683.227 252.456C683.517 250.654 683.744 245.105 676.179 238.293Z" fill="#3FCAC2"/>
<path id="Vector_61" d="M499.58 100.175C503.523 75.8397 487.025 52.9097 462.73 48.9595C438.435 45.0093 415.543 61.5348 411.599 85.8702C407.656 110.206 424.154 133.136 448.449 137.086C472.744 141.036 495.636 124.511 499.58 100.175Z" fill="#F8C244"/>
<path id="Vector_62" d="M455.561 131.083C476.543 131.083 493.553 114.045 493.553 93.0274C493.553 72.0098 476.543 54.9717 455.561 54.9717C434.578 54.9717 417.568 72.0098 417.568 93.0274C417.568 114.045 434.578 131.083 455.561 131.083Z" fill="#E8A825"/>
<path id="Vector_63" d="M457.276 109.302C461.152 112.548 465.521 115.155 470.216 117.024C476.707 119.261 489.109 122.428 489.109 122.428L493.574 116.383L457.276 109.302Z" fill="url(#paint30_linear)"/>
<path id="Vector_64" d="M476.568 80.2361L471.386 83.4617C473.094 86.2371 474.003 89.4321 474.013 92.694L469.824 93.6125C469.882 90.5422 469.059 87.5206 467.453 84.9066C465.174 81.2492 461.564 80.1115 458.661 81.8683C455.757 83.6252 455.349 86.7044 456.151 91.4723C457.358 97.9794 456.99 102.715 452.565 105.458C448.14 108.2 443.249 107.102 439.512 102.853L434.355 106.131L432.371 102.948L437.284 99.8704C435.862 97.5139 435.05 94.8389 434.921 92.0877L439.142 91.2023C439.199 93.8748 439.985 96.48 441.416 98.7353C443.875 102.696 447.157 102.691 449.231 101.436C451.885 99.7681 452.04 97.0398 451.111 91.4391C449.984 84.8281 451.015 80.4526 455.552 77.6393C457.761 76.2963 460.387 75.8156 462.927 76.2891C465.467 76.7626 467.742 78.1571 469.318 80.2059L474.645 76.8771L476.568 80.2361Z" fill="#F8C244"/>
<path id="Vector_65" d="M470.795 108.08C469.313 106.149 468.038 104.067 466.992 101.868C465.979 99.301 465.751 104.125 466.33 105.575C466.909 107.024 458.062 99.3631 457.607 100.771C457.152 102.179 461.741 105.575 461.741 105.575C461.741 105.575 457.008 102.241 456.139 102.738C455.271 103.235 460.274 107.252 460.274 107.252C460.274 107.252 455.044 104.477 455.044 104.995C456.536 106.518 458.162 107.904 459.902 109.136C459.902 109.136 456.925 108.266 456.491 108.266C456.057 108.266 456.201 109.301 459.757 110.523L468.852 113.691L470.795 108.08Z" fill="#F9C6D6"/>
<path id="Vector_66" d="M481.316 183.632L582.127 537.79" stroke="white" stroke-width="4" stroke-linecap="round" stroke-linejoin="round"/>
<path id="Vector_67" d="M525.448 175.951L626.238 530.109" stroke="white" stroke-width="4" stroke-linecap="round" stroke-linejoin="round"/>
<path id="Vector_68" d="M487.642 206.263L530.823 194.813" stroke="white" stroke-width="4" stroke-linecap="round" stroke-linejoin="round"/>
<path id="Vector_69" d="M499.631 247.962L542.812 236.492" stroke="white" stroke-width="4" stroke-linecap="round" stroke-linejoin="round"/>
<path id="Vector_70" d="M511.619 289.642L554.801 278.192" stroke="white" stroke-width="4" stroke-linecap="round" stroke-linejoin="round"/>
<path id="Vector_71" d="M523.609 331.341L566.79 319.892" stroke="white" stroke-width="4" stroke-linecap="round" stroke-linejoin="round"/>
<path id="Vector_72" d="M535.597 373.02L578.758 361.571" stroke="white" stroke-width="4" stroke-linecap="round" stroke-linejoin="round"/>
<path id="Vector_73" d="M547.586 414.72L590.747 403.271" stroke="white" stroke-width="4" stroke-linecap="round" stroke-linejoin="round"/>
<path id="Vector_74" d="M559.575 456.42L602.736 444.949" stroke="white" stroke-width="4" stroke-linecap="round" stroke-linejoin="round"/>
<path id="Vector_75" d="M571.564 498.099L614.725 486.649" stroke="white" stroke-width="4" stroke-linecap="round" stroke-linejoin="round"/>
<path id="Vector_76" d="M510.979 195.641C511.027 196.084 510.977 196.532 510.835 196.954C510.692 197.376 510.459 197.762 510.152 198.084C509.824 198.31 509.45 198.458 509.056 198.519C508.029 198.722 506.98 198.792 505.935 198.726C503.976 198.575 502.029 198.298 500.106 197.898L496.778 197.256C496.572 197.242 496.371 197.188 496.186 197.095C496.002 197.003 495.838 196.875 495.703 196.718C495.603 196.51 495.567 196.276 495.6 196.047C495.633 195.819 495.734 195.605 495.889 195.434C496.438 194.79 497.153 194.31 497.956 194.047C499.933 193.234 501.972 192.583 504.054 192.101C504.401 192.057 504.729 191.921 505.005 191.707C505.439 191.355 505.522 190.734 505.79 190.258C506.074 189.842 506.477 189.523 506.945 189.342C507.414 189.16 507.927 189.126 508.416 189.243C509.366 189.43 510.731 190.071 510.958 191.127C511.141 192.626 511.148 194.141 510.979 195.641Z" fill="#F9C6D6"/>
<path id="Vector_77" d="M500.313 192.494C500.648 192.415 500.997 192.421 501.329 192.511C501.661 192.602 501.965 192.774 502.214 193.012C502.772 193.819 502.07 195.082 502.71 195.827C503.121 196.15 503.638 196.305 504.157 196.262H507.816C508.793 196.301 509.771 196.224 510.731 196.035C510.954 195.973 511.19 195.973 511.413 196.035C511.576 196.077 511.721 196.17 511.829 196.3C511.936 196.43 512 196.591 512.012 196.759C512.057 197.091 512.007 197.428 511.868 197.732C511.641 198.397 511.306 199.02 510.875 199.575C510.755 199.744 510.6 199.885 510.421 199.989C510.209 200.03 509.991 200.03 509.78 199.989H503.289C501.801 199.886 500.292 199.658 498.804 199.534C496.635 199.533 494.482 199.162 492.437 198.436C492.174 198.344 491.932 198.199 491.726 198.01C491.52 197.822 491.354 197.593 491.238 197.339C491.169 197.106 491.157 196.86 491.204 196.622C491.25 196.384 491.354 196.161 491.507 195.972C491.794 195.587 492.16 195.27 492.582 195.041C493.765 194.296 495.054 193.737 496.406 193.384C497.685 192.995 498.991 192.697 500.313 192.494Z" fill="#565056"/>
<path id="Vector_78" d="M545.416 231.834V232.082C545.292 235.001 541.447 235.064 539.36 234.96C537.399 234.829 535.45 234.552 533.53 234.132L530.223 233.49C530.013 233.483 529.807 233.431 529.618 233.338C529.429 233.246 529.262 233.114 529.128 232.952C529.037 232.744 529.009 232.514 529.045 232.29C529.082 232.066 529.182 231.857 529.334 231.689C529.885 231.042 530.599 230.556 531.401 230.281C533.2 229.556 535.019 229.059 536.858 228.5C538.698 227.941 537.127 225.746 536.858 224.566C536.775 224.325 536.775 224.062 536.858 223.821C537.048 223.567 537.317 223.385 537.623 223.303C538.578 222.986 539.574 222.811 540.579 222.785C540.785 222.758 540.994 222.794 541.179 222.889C541.336 223.009 541.451 223.176 541.509 223.365L544.672 230.115C545.024 230.637 545.276 231.22 545.416 231.834Z" fill="#F9C6D6"/>
<path id="Vector_79" d="M544.01 146.135C544.01 146.135 546.367 159.428 541.509 169.387C538.951 174.748 536.094 179.96 532.952 184.999C532.952 184.999 543.08 195.952 543.08 209.845C542.901 214.677 542.991 219.516 543.349 224.338L537.272 227.423L522.079 185.061C522.079 185.061 521.169 179.036 522.079 177.007C522.988 174.978 530.802 151.933 530.802 151.933L544.01 146.135Z" fill="#473F47"/>
<path id="Vector_80" d="M519.908 82.3229C519.69 83.1164 519.378 83.881 518.978 84.6005C518.64 84.8893 518.39 85.2672 518.256 85.6913C518.122 86.1153 518.109 86.5686 518.218 86.9997C518.328 87.4308 518.556 87.8225 518.877 88.1303C519.197 88.4382 519.598 88.6499 520.032 88.7415C520.622 88.9521 521.222 89.1318 521.831 89.2798C522.222 89.3334 522.597 89.475 522.926 89.6939C523.091 89.8408 523.225 90.0189 523.321 90.2178C523.417 90.4168 523.472 90.6328 523.484 90.8534C523.486 92.0195 523.254 93.1742 522.802 94.249C522.563 94.7828 522.439 95.3615 522.439 95.9468C522.439 96.5321 522.563 97.1107 522.802 97.6446C524.146 99.86 526.523 98.1829 527.867 97.0234C528.646 96.2957 529.278 95.4239 529.727 94.456C531.301 91.3805 531.954 87.9149 531.608 84.4762C531.422 82.2705 530.713 80.1411 529.541 78.2648C528.611 76.8154 526.606 74.4343 524.642 75.5317C523.671 76.0907 523.236 77.2916 522.286 77.8714C521.335 78.4511 520.653 78.4304 520.218 79.1344C519.784 79.8383 520.053 80.915 519.95 81.7018C519.967 81.9097 519.953 82.1191 519.908 82.3229Z" fill="#F9C6D6"/>
<path id="Vector_81" d="M512.55 146.757C507.224 147.662 501.962 148.914 496.799 150.504C495.267 150.832 493.845 151.544 492.665 152.575C491.895 153.557 491.364 154.705 491.114 155.929C490.425 158.136 490.213 160.466 490.494 162.762C490.949 164.832 503.93 188.746 504.964 190.361C505.096 190.593 505.271 190.797 505.48 190.962C505.75 191.119 506.057 191.198 506.369 191.189C507.837 191.355 510.049 189.968 511.247 190.817C510.669 186.676 510.917 186.386 510.235 183.259C509.552 180.133 508.581 177.048 508.023 173.942C507.823 172.384 507.52 170.842 507.113 169.325C506.397 167.113 505.027 165.171 503.186 163.755L516.766 166.281C518.297 166.592 519.842 166.82 521.397 166.965C523.727 167.158 526.071 167.082 528.383 166.737C533.158 165.992 536.838 161.975 539.008 157.896C540.212 155.682 541.01 153.27 541.365 150.773C541.509 149.612 541.509 148.436 541.365 147.274C541.172 146.233 540.923 145.203 540.62 144.189C538.264 145.887 534.419 144.955 531.67 144.976C527.803 144.993 523.94 145.207 520.094 145.618C517.614 145.991 515.072 146.343 512.55 146.757Z" fill="#565056"/>
<path id="Vector_82" d="M527.515 94.8079C524.352 94.1327 521.051 94.7436 518.337 96.5065C515.624 98.2693 513.72 101.04 513.046 104.208C512.8 105.399 512.73 106.62 512.839 107.831C513.066 111.972 515.092 115.616 516.208 119.53C516.865 122.114 517.328 124.744 517.593 127.397C518.296 132.905 518.854 138.972 515.692 143.527C514.621 144.665 513.834 146.042 513.397 147.543C512.798 152.057 518.958 153.32 522.079 154.148C527.182 155.678 532.423 156.698 537.727 157.192C539.667 157.337 541.615 157.337 543.556 157.192C543.966 157.171 544.37 157.087 544.755 156.943C545.205 156.719 545.579 156.366 545.83 155.929C547.649 153.154 546.553 149.49 546.574 146.177C546.574 143.92 547.173 141.725 547.276 139.489C547.193 137.143 546.804 134.818 546.119 132.574C545.726 130.648 545.891 128.598 545.519 126.631C544.452 121.534 543.008 116.524 541.199 111.641C540.213 108.564 538.947 105.583 537.417 102.738C535.72 99.406 532.89 96.7916 529.438 95.3669C528.816 95.1194 528.172 94.9322 527.515 94.8079Z" fill="white"/>
<path id="Vector_83" d="M524.993 108.08C517.394 114.744 507.809 118.704 497.729 119.343C487.288 119.824 476.876 117.89 467.302 113.691L470.795 108.08C470.795 108.08 492.189 109.902 495.827 108.97C500.168 107.873 519.516 95.8847 519.516 95.8847C519.516 95.8847 529.892 94.8701 524.993 108.08Z" fill="white"/>
<path id="Vector_84" d="M534.378 228.231C534.713 228.152 535.062 228.158 535.394 228.248C535.726 228.338 536.031 228.51 536.28 228.748C536.838 229.556 536.114 230.819 536.776 231.564C537.186 231.887 537.703 232.042 538.223 231.999H541.923C542.9 232.048 543.879 231.971 544.837 231.771C545.06 231.71 545.296 231.71 545.519 231.771C545.682 231.814 545.828 231.907 545.935 232.037C546.043 232.167 546.107 232.328 546.119 232.496C546.164 232.828 546.114 233.165 545.974 233.469C545.748 234.141 545.413 234.77 544.982 235.333C544.861 235.495 544.706 235.63 544.527 235.726C544.324 235.809 544.106 235.851 543.886 235.85C541.716 235.85 539.546 235.85 537.396 235.747C535.887 235.747 534.399 235.415 532.91 235.291C530.74 235.311 528.583 234.939 526.544 234.194C526.28 234.101 526.038 233.957 525.832 233.768C525.626 233.579 525.46 233.351 525.345 233.096C525.275 232.867 525.263 232.625 525.31 232.39C525.357 232.155 525.461 231.935 525.614 231.751C525.905 231.365 526.271 231.041 526.688 230.798C527.871 230.053 529.161 229.495 530.513 229.142C531.778 228.746 533.069 228.441 534.378 228.231Z" fill="#565056"/>
<path id="Vector_85" d="M523.402 71.7013C522.616 72.3639 522.099 73.0057 522.203 73.482L524.993 77.8507L527.35 76.5049L526.13 78.8238L528.197 81.4534L529.81 79.8591C529.81 79.8591 524.642 102.862 530.161 115.865C535.68 128.868 535.68 127.128 535.68 127.128C535.68 127.128 542.998 122.449 547.38 124.603C551.762 126.756 554.098 119.488 554.098 119.488C554.098 119.488 547.462 111.972 547.38 96.7129C547.5 89.2842 545.796 81.9396 542.419 75.3247C541.611 73.8742 540.526 72.5974 539.225 71.5676C537.924 70.5377 536.433 69.775 534.838 69.323C533.242 68.8711 531.573 68.7388 529.927 68.9337C528.28 69.1287 526.688 69.647 525.241 70.459C524.588 70.8102 523.972 71.2264 523.402 71.7013Z" fill="#565056"/>
</g>
<defs>
<linearGradient id="paint0_linear" x1="194.242" y1="248.211" x2="194.636" y2="283.906" gradientUnits="userSpaceOnUse">
<stop stop-color="#68E1FD"/>
<stop offset="1" stop-color="#68E1FD"/>
</linearGradient>
<linearGradient id="paint1_linear" x1="-106893" y1="123372" x2="-90242.2" y2="123372" gradientUnits="userSpaceOnUse">
<stop stop-color="#68E1FD"/>
<stop offset="1" stop-color="#68E1FD"/>
</linearGradient>
<linearGradient id="paint2_linear" x1="441.257" y1="535.161" x2="441.34" y2="390.64" gradientUnits="userSpaceOnUse">
<stop stop-color="#183866"/>
<stop offset="1" stop-color="#68E1FD"/>
</linearGradient>
<linearGradient id="paint3_linear" x1="236.059" y1="648.417" x2="292.794" y2="376.247" gradientUnits="userSpaceOnUse">
<stop/>
<stop offset="1" stop-opacity="0"/>
</linearGradient>
<linearGradient id="paint4_linear" x1="15227.8" y1="195882" x2="18414.3" y2="191456" gradientUnits="userSpaceOnUse">
<stop/>
<stop offset="1" stop-opacity="0"/>
</linearGradient>
<linearGradient id="paint5_linear" x1="346.523" y1="58.0362" x2="459.773" y2="460.174" gradientUnits="userSpaceOnUse">
<stop stop-color="white" stop-opacity="0"/>
<stop offset="0.54" stop-color="white"/>
</linearGradient>
<linearGradient id="paint6_linear" x1="31406.1" y1="-20243.2" x2="34955.7" y2="-38800.1" gradientUnits="userSpaceOnUse">
<stop/>
<stop offset="1" stop-opacity="0"/>
</linearGradient>
<linearGradient id="paint7_linear" x1="48233.7" y1="216020" x2="48366.6" y2="212628" gradientUnits="userSpaceOnUse">
<stop/>
<stop offset="1" stop-color="#3FCAC2"/>
</linearGradient>
<linearGradient id="paint8_linear" x1="5682.3" y1="-11477.8" x2="6530.32" y2="-15327.2" gradientUnits="userSpaceOnUse">
<stop/>
<stop offset="1" stop-opacity="0"/>
</linearGradient>
<linearGradient id="paint9_linear" x1="474.164" y1="609.637" x2="440.547" y2="286.754" gradientUnits="userSpaceOnUse">
<stop/>
<stop offset="0.07" stop-opacity="0.84"/>
<stop offset="1" stop-opacity="0"/>
</linearGradient>
<linearGradient id="paint10_linear" x1="555.408" y1="-41.5407" x2="565.607" y2="29.7852" gradientUnits="userSpaceOnUse">
<stop/>
<stop offset="0.07" stop-opacity="0.84"/>
<stop offset="1" stop-opacity="0"/>
</linearGradient>
<linearGradient id="paint11_linear" x1="631.279" y1="-48.4283" x2="640.712" y2="23.2479" gradientUnits="userSpaceOnUse">
<stop/>
<stop offset="0.07" stop-opacity="0.84"/>
<stop offset="1" stop-opacity="0"/>
</linearGradient>
<linearGradient id="paint12_linear" x1="785.658" y1="-311.664" x2="809.863" y2="-93.3364" gradientUnits="userSpaceOnUse">
<stop/>
<stop offset="0.07" stop-opacity="0.84"/>
<stop offset="1" stop-opacity="0"/>
</linearGradient>
<linearGradient id="paint13_linear" x1="851.294" y1="-387.024" x2="881.488" y2="-95.7732" gradientUnits="userSpaceOnUse">
<stop/>
<stop offset="0.07" stop-opacity="0.84"/>
<stop offset="1" stop-opacity="0"/>
</linearGradient>
<linearGradient id="paint14_linear" x1="919.887" y1="-453.716" x2="956.209" y2="-86.5737" gradientUnits="userSpaceOnUse">
<stop/>
<stop offset="0.07" stop-opacity="0.84"/>
<stop offset="1" stop-opacity="0"/>
</linearGradient>
<linearGradient id="paint15_linear" x1="889.016" y1="-493.856" x2="929.598" y2="-55.6694" gradientUnits="userSpaceOnUse">
<stop/>
<stop offset="0.07" stop-opacity="0.84"/>
<stop offset="1" stop-opacity="0"/>
</linearGradient>
<linearGradient id="paint16_linear" x1="36717.7" y1="-63478.2" x2="39347.4" y2="-25021.5" gradientUnits="userSpaceOnUse">
<stop/>
<stop offset="0.07" stop-opacity="0.84"/>
<stop offset="1" stop-opacity="0"/>
</linearGradient>
<linearGradient id="paint17_linear" x1="939.152" y1="-516.57" x2="982.62" y2="-19.0019" gradientUnits="userSpaceOnUse">
<stop/>
<stop offset="0.07" stop-opacity="0.84"/>
<stop offset="1" stop-opacity="0"/>
</linearGradient>
<linearGradient id="paint18_linear" x1="39460.2" y1="28276.3" x2="39958.9" y2="51990.7" gradientUnits="userSpaceOnUse">
<stop stop-color="white" stop-opacity="0"/>
<stop offset="0.54" stop-color="white"/>
</linearGradient>
<linearGradient id="paint19_linear" x1="12174.3" y1="50248.9" x2="11835.7" y2="50978" gradientUnits="userSpaceOnUse">
<stop/>
<stop offset="1" stop-opacity="0"/>
</linearGradient>
<linearGradient id="paint20_linear" x1="11653.4" y1="49967.6" x2="11314.8" y2="50696.6" gradientUnits="userSpaceOnUse">
<stop/>
<stop offset="1" stop-opacity="0"/>
</linearGradient>
<linearGradient id="paint21_linear" x1="140.912" y1="366.395" x2="145.246" y2="260.386" gradientUnits="userSpaceOnUse">
<stop stop-color="#3FCAC2"/>
<stop offset="0.67" stop-color="white"/>
</linearGradient>
<linearGradient id="paint22_linear" x1="30818.5" y1="79629.8" x2="29917.5" y2="82322.6" gradientUnits="userSpaceOnUse">
<stop/>
<stop offset="1" stop-opacity="0"/>
</linearGradient>
<linearGradient id="paint23_linear" x1="-3556.08" y1="56377.6" x2="-2913.62" y2="57406.1" gradientUnits="userSpaceOnUse">
<stop/>
<stop offset="1" stop-opacity="0"/>
</linearGradient>
<linearGradient id="paint24_linear" x1="-121646" y1="238949" x2="-122517" y2="227382" gradientUnits="userSpaceOnUse">
<stop/>
<stop offset="1" stop-opacity="0"/>
</linearGradient>
<linearGradient id="paint25_linear" x1="11226.9" y1="-15159.7" x2="16331.9" y2="-18390.7" gradientUnits="userSpaceOnUse">
<stop/>
<stop offset="1" stop-opacity="0"/>
</linearGradient>
<linearGradient id="paint26_linear" x1="9930.74" y1="-10599.5" x2="10778.9" y2="-14447.1" gradientUnits="userSpaceOnUse">
<stop/>
<stop offset="1" stop-opacity="0"/>
</linearGradient>
<linearGradient id="paint27_linear" x1="-119843" y1="99150.6" x2="-119786" y2="100586" gradientUnits="userSpaceOnUse">
<stop/>
<stop offset="1" stop-opacity="0"/>
</linearGradient>
<linearGradient id="paint28_linear" x1="-16704.6" y1="327703" x2="-24624" y2="319480" gradientUnits="userSpaceOnUse">
<stop/>
<stop offset="1" stop-opacity="0"/>
</linearGradient>
<linearGradient id="paint29_linear" x1="-14629" y1="339135" x2="-22833.6" y2="330896" gradientUnits="userSpaceOnUse">
<stop/>
<stop offset="1" stop-opacity="0"/>
</linearGradient>
<linearGradient id="paint30_linear" x1="9852.56" y1="-3020.45" x2="9811.97" y2="-2814.34" gradientUnits="userSpaceOnUse">
<stop/>
<stop offset="1" stop-opacity="0"/>
</linearGradient>
<clipPath id="clip0">
<rect width="773" height="588" fill="white"/>
</clipPath>
</defs>
</svg>
