<svg width="591" height="440" viewBox="0 0 591 440" fill="none" xmlns="http://www.w3.org/2000/svg">
<path d="M504.516 436.697C510.787 421.979 515.209 405.96 513.116 390.107C512.398 384.732 510.837 379.503 508.489 374.617C506.598 370.633 504.156 366.936 501.235 363.635C500.226 362.471 498.84 361.699 497.32 361.454C495.8 361.209 494.242 361.507 492.919 362.295C492.714 362.413 492.51 362.54 492.321 362.674C491.297 363.397 490.489 364.386 489.984 365.535C489.887 365.755 489.805 365.982 489.74 366.213C489.451 367.181 489.374 368.2 489.512 369.201C490.615 377.36 490.376 385.644 488.804 393.726C488.403 395.783 487.912 397.822 487.333 399.843C486.031 398.215 484.647 396.655 483.186 395.168C479.399 391.323 475.031 388.099 470.244 385.614H470.236C470.212 385.598 470.197 385.59 470.173 385.574C464.366 382.61 456.624 383.84 452.1 385.858C451.801 385.984 451.518 386.126 451.243 386.26C448.882 387.474 447.71 388.87 448.717 389.784C448.945 389.981 449.174 390.186 449.386 390.391C456.244 396.744 461.863 404.32 465.956 412.732V412.74C467.582 416.089 468.953 419.557 470.055 423.114C471.573 428.026 472.832 433.473 475.798 437.478C476.102 437.899 476.43 438.302 476.782 438.684L503.281 438.471C503.344 438.439 503.399 438.416 503.462 438.384L504.516 438.424C504.477 438.234 504.43 438.045 504.382 437.856V437.84C504.359 437.738 504.327 437.627 504.304 437.533C504.28 437.454 504.264 437.383 504.249 437.32C504.296 437.202 504.343 437.091 504.398 436.973C504.437 436.878 504.477 436.792 504.516 436.697Z" fill="#F0F0F0"/>
<path d="M504.382 437.84C504.374 437.899 504.351 437.955 504.315 438.003C504.279 438.05 504.232 438.087 504.177 438.111C504.123 438.135 504.063 438.144 504.004 438.138C503.945 438.132 503.888 438.111 503.84 438.077C502.751 437.285 501.556 436.651 500.291 436.193C500.283 436.185 500.283 436.193 500.283 436.193C498.687 435.618 497.044 435.18 495.374 434.884C495.358 434.884 495.35 434.876 495.334 434.876C494.658 434.742 493.981 434.624 493.304 434.498C490.016 433.891 486.672 433.158 483.824 431.281C482.665 430.562 481.671 429.605 480.907 428.473C480.144 427.341 479.628 426.06 479.394 424.715C478.977 422.074 479.504 419.417 479.724 416.784C479.74 416.595 479.756 416.398 479.764 416.209C479.78 415.964 479.787 415.728 479.787 415.491C479.868 413.101 479.389 410.725 478.387 408.554C477.1 405.955 475.411 403.577 473.383 401.506C472.336 400.379 471.246 399.294 470.11 398.251H470.102C470.055 398.203 470.015 398.164 469.968 398.124C469.968 398.117 469.96 398.109 469.953 398.101C465.097 393.681 459.591 390.038 453.627 387.301C453.414 387.206 453.194 387.104 452.974 387.009C452.399 386.749 451.825 386.505 451.243 386.26C451.518 386.126 451.801 385.984 452.1 385.858C458.752 388.677 464.891 392.582 470.267 397.415C470.448 397.573 470.629 397.738 470.802 397.904C472.163 399.165 473.459 400.487 474.689 401.869C476.656 403.992 478.25 406.433 479.402 409.09C480.247 411.24 480.62 413.547 480.496 415.854C480.48 416.295 480.448 416.737 480.409 417.186C480.165 419.843 479.622 422.586 480.228 425.243C480.92 428.27 483.265 430.383 485.987 431.675C487.789 432.48 489.68 433.068 491.621 433.426C495.633 434.269 499.78 434.679 503.289 436.839H503.297C503.352 436.878 503.407 436.91 503.454 436.941C503.462 436.941 503.462 436.941 503.462 436.949C503.715 437.1 503.96 437.266 504.194 437.446C504.209 437.454 504.225 437.47 504.241 437.478C504.263 437.494 504.284 437.512 504.304 437.533C504.34 437.574 504.366 437.624 504.38 437.677C504.393 437.73 504.394 437.786 504.382 437.84Z" fill="white"/>
<path d="M470.596 398.174C472.025 396.398 472.778 394.17 472.72 391.888C472.662 389.607 471.796 387.42 470.277 385.719C469.969 385.376 469.422 385.84 469.731 386.184C471.148 387.765 471.954 389.802 472.004 391.927C472.054 394.051 471.345 396.124 470.003 397.77C469.712 398.128 470.306 398.53 470.596 398.174Z" fill="white"/>
<path d="M480.015 415.467C475.39 416.006 470.732 414.778 466.971 412.029C466.598 411.756 466.195 412.35 466.567 412.622C470.487 415.476 475.337 416.743 480.149 416.172C480.608 416.117 480.472 415.413 480.015 415.467Z" fill="white"/>
<path d="M453.674 387.214C453.658 387.246 453.642 387.269 453.627 387.301C453.193 388.099 452.588 388.79 451.854 389.325C451.121 389.86 450.277 390.224 449.386 390.391C449.174 390.186 448.945 389.981 448.717 389.784C448.753 389.762 448.793 389.748 448.835 389.745C449.692 389.65 450.514 389.353 451.234 388.877C451.953 388.401 452.55 387.761 452.974 387.009C453.013 386.946 453.052 386.875 453.084 386.812C453.11 386.773 453.144 386.74 453.183 386.714C453.222 386.688 453.266 386.67 453.312 386.661C453.358 386.652 453.405 386.653 453.451 386.662C453.497 386.672 453.541 386.691 453.579 386.717C453.655 386.773 453.707 386.855 453.724 386.947C453.742 387.039 453.724 387.135 453.674 387.214Z" fill="white"/>
<path d="M57.6409 4.29102C43.4943 4.307 29.9317 9.94477 19.9285 19.9674C9.92534 29.9901 4.29854 43.5792 4.28259 57.7534V262.638C4.29854 276.813 9.92534 290.402 19.9285 300.424C29.9317 310.447 43.4943 316.085 57.6409 316.101H533.359C547.506 316.085 561.068 310.447 571.071 300.424C581.075 290.402 586.701 276.813 586.717 262.638V57.7534C586.701 43.5792 581.075 29.9901 571.071 19.9674C561.068 9.94477 547.506 4.307 533.359 4.29102H57.6409Z" fill="white"/>
<path d="M533.359 320.392H57.6409C42.3589 320.374 27.7077 314.284 16.9017 303.457C6.09562 292.63 0.0172316 277.95 3.05176e-05 262.638V57.7533C0.0172316 42.4415 6.09562 27.7617 16.9017 16.9346C27.7077 6.10748 42.3589 0.0172346 57.6409 0H533.359C548.641 0.0172242 563.292 6.10746 574.098 16.9346C584.904 27.7617 590.983 42.4415 591 57.7533V262.638C590.983 277.95 584.904 292.63 574.098 303.457C563.292 314.284 548.641 320.374 533.359 320.392V320.392ZM57.6409 8.58189C44.6298 8.59663 32.1557 13.7819 22.9554 23.0001C13.7551 32.2184 8.57993 44.7168 8.56522 57.7533V262.638C8.57993 275.675 13.7551 288.173 22.9554 297.391C32.1557 306.61 44.6298 311.795 57.6409 311.81H533.359C546.37 311.795 558.844 306.61 568.044 297.391C577.245 288.173 582.42 275.675 582.435 262.638V57.7533C582.42 44.7168 577.245 32.2184 568.044 23.0001C558.844 13.7819 546.37 8.59663 533.359 8.58189H57.6409Z" fill="#E6E6E6"/>
<path d="M296.451 46H70.2154C65.3869 46.0083 60.7586 47.9338 57.3444 51.3548C53.9301 54.7757 52.0083 59.413 52 64.2509V166.49C51.998 167.575 52.0984 168.657 52.2999 169.723C52.3712 170.209 52.4854 170.681 52.5996 171.153C53.6359 175.044 55.9235 178.483 59.108 180.94C62.2926 183.396 66.1965 184.732 70.2154 184.741H296.451C296.822 184.741 297.194 184.727 297.551 184.698H297.807V184.684C297.879 184.686 297.951 184.681 298.022 184.67C298.093 184.67 298.179 184.655 298.25 184.655C298.275 184.658 298.299 184.653 298.321 184.641C298.478 184.627 298.635 184.612 298.778 184.598C299.035 184.555 299.292 184.526 299.535 184.484C299.567 184.472 299.601 184.467 299.635 184.469C299.679 184.447 299.728 184.438 299.777 184.441C299.783 184.435 299.79 184.431 299.797 184.429C299.805 184.426 299.813 184.425 299.82 184.426C299.977 184.398 300.134 184.369 300.291 184.326C300.378 184.314 300.464 184.295 300.548 184.269C300.862 184.198 301.176 184.126 301.476 184.026C301.619 183.983 301.747 183.954 301.89 183.911C302.076 183.854 302.276 183.783 302.461 183.711C302.559 183.684 302.654 183.651 302.747 183.611C302.758 183.611 302.769 183.608 302.779 183.603C302.788 183.598 302.797 183.591 302.804 183.583C303.217 183.437 303.622 183.27 304.017 183.082C304.36 182.925 304.688 182.753 305.017 182.581C305.145 182.524 305.259 182.453 305.388 182.381C305.419 182.367 305.448 182.348 305.473 182.324C305.802 182.124 306.13 181.923 306.444 181.737C306.458 181.723 306.458 181.709 306.473 181.709C306.475 181.709 306.476 181.709 306.478 181.708C306.48 181.707 306.481 181.706 306.483 181.705C306.484 181.703 306.485 181.702 306.486 181.7C306.487 181.698 306.487 181.696 306.487 181.695C306.823 181.484 307.147 181.254 307.458 181.008H307.472C307.558 180.936 307.629 180.879 307.7 180.822C307.8 180.75 307.9 180.665 307.986 180.593C308.157 180.45 308.328 180.307 308.485 180.164C308.582 180.091 308.673 180.009 308.757 179.921C308.999 179.706 309.228 179.478 309.456 179.249C309.578 179.132 309.692 179.008 309.799 178.877C309.976 178.706 310.143 178.525 310.298 178.333C310.441 178.147 310.598 177.961 310.741 177.775C310.91 177.58 311.068 177.375 311.212 177.16C311.469 176.817 311.697 176.474 311.926 176.102C312.111 175.802 312.297 175.487 312.468 175.172C312.554 175.015 312.64 174.843 312.725 174.672C312.74 174.672 312.74 174.657 312.74 174.643C312.897 174.343 313.039 174.042 313.168 173.728C313.225 173.599 313.282 173.485 313.325 173.356C313.439 173.113 313.525 172.855 313.625 172.598C313.782 172.126 313.939 171.639 314.067 171.153C314.181 170.681 314.295 170.209 314.367 169.723C314.568 168.657 314.669 167.575 314.667 166.49V64.2509C314.658 59.413 312.737 54.7757 309.322 51.3548C305.908 47.9338 301.28 46.0083 296.451 46V46Z" fill="#0096C7"/>
<path opacity="0.3" d="M314.993 76.0317H52.326V77.4621H314.993V76.0317Z" fill="white"/>
<path opacity="0.3" d="M314.993 91.7654H52.326V93.1957H314.993V91.7654Z" fill="white"/>
<path opacity="0.3" d="M314.993 107.499H52.326V108.929H314.993V107.499Z" fill="white"/>
<path opacity="0.3" d="M314.993 123.232H52.326V124.663H314.993V123.232Z" fill="white"/>
<path opacity="0.3" d="M314.993 138.966H52.326V140.396H314.993V138.966Z" fill="white"/>
<path opacity="0.3" d="M314.993 154.699H52.326V156.13H314.993V154.699Z" fill="white"/>
<path opacity="0.3" d="M314.693 170.433C314.622 170.919 314.507 171.391 314.393 171.863H52.5259C52.4399 171.39 52.3827 170.913 52.3546 170.433H314.693Z" fill="white"/>
<g opacity="0.1">
<path opacity="0.1" d="M314.993 145.059V167.2C314.995 168.285 314.894 169.367 314.693 170.433C314.621 170.919 314.507 171.391 314.393 171.863C314.265 172.35 314.108 172.836 313.951 173.308C313.851 173.565 313.765 173.823 313.651 174.066C313.608 174.195 313.551 174.309 313.494 174.438C313.365 174.752 313.223 175.053 313.066 175.353C313.066 175.368 313.065 175.382 313.051 175.382C312.966 175.553 312.88 175.725 312.794 175.882C312.623 176.197 312.437 176.512 312.252 176.812C312.023 177.184 311.795 177.527 311.538 177.871C311.394 178.085 311.236 178.29 311.067 178.486C310.924 178.672 310.767 178.858 310.624 179.043C310.469 179.235 310.302 179.416 310.125 179.587C310.018 179.718 309.904 179.842 309.782 179.959C309.554 180.188 309.325 180.417 309.083 180.631C308.999 180.72 308.908 180.801 308.811 180.874C308.654 181.017 308.483 181.16 308.312 181.303C308.226 181.375 308.126 181.461 308.026 181.532C307.955 181.589 307.884 181.647 307.798 181.718H307.784C307.473 181.965 307.149 182.194 306.813 182.405C306.813 182.407 306.813 182.409 306.812 182.41C306.811 182.412 306.81 182.414 306.809 182.415C306.807 182.416 306.806 182.417 306.804 182.418C306.802 182.419 306.801 182.419 306.799 182.419C306.784 182.419 306.784 182.433 306.77 182.448C306.57 182.591 306.356 182.719 306.142 182.848C306.028 182.92 305.914 182.977 305.799 183.034C305.774 183.058 305.745 183.077 305.714 183.091C305.585 183.163 305.471 183.234 305.343 183.291C305.014 183.463 304.686 183.635 304.343 183.792C303.948 183.98 303.543 184.147 303.13 184.293C303.123 184.301 303.114 184.309 303.105 184.313C303.095 184.318 303.084 184.321 303.073 184.321C302.98 184.361 302.885 184.394 302.787 184.421C302.602 184.493 302.402 184.564 302.216 184.622C302.073 184.665 301.945 184.693 301.802 184.736C301.502 184.836 301.188 184.908 300.874 184.979C300.79 185.005 300.704 185.024 300.617 185.036C300.46 185.079 300.303 185.108 300.146 185.137C300.139 185.136 300.131 185.136 300.123 185.139C300.116 185.141 300.109 185.145 300.103 185.151C300.054 185.148 300.005 185.158 299.961 185.179C299.927 185.177 299.893 185.182 299.861 185.194C299.618 185.237 299.361 185.265 299.104 185.308C298.961 185.322 298.804 185.337 298.647 185.351C298.625 185.363 298.601 185.368 298.576 185.365C298.419 185.38 298.276 185.394 298.133 185.408H298.105C297.948 185.423 297.791 185.423 297.634 185.437C297.348 185.451 297.063 185.451 296.777 185.451H70.5414C66.5225 185.442 62.6186 184.106 59.434 181.65C56.2495 179.194 53.9619 175.754 52.9256 171.863H52.5259C52.4398 171.39 52.3826 170.913 52.3546 170.433C52.3403 170.161 52.326 169.875 52.326 169.603V144.659C55.3222 144.747 58.2935 145.233 61.1624 146.103C68.9282 148.477 76.4799 152.497 84.5883 152.497C85.2307 152.497 85.9017 152.468 86.5583 152.411C95.095 151.696 101.733 146.389 107.258 140.396C107.7 139.924 108.143 139.452 108.557 138.966C109.599 137.807 110.598 136.62 111.569 135.447C114.67 131.523 118.146 127.911 121.947 124.663C122.561 124.162 123.175 123.69 123.803 123.232C127.489 120.478 131.829 118.738 136.394 118.183C136.979 118.126 137.564 118.083 138.15 118.069C144.259 117.883 149.998 120.086 155.223 123.232C155.979 123.69 156.736 124.162 157.464 124.663C159.962 126.36 162.369 128.188 164.673 130.141C168.231 133.272 171.947 136.218 175.808 138.966C176.093 139.166 176.379 139.366 176.664 139.538C177.107 139.838 177.564 140.125 178.021 140.396C181.931 142.915 186.329 144.577 190.926 145.274C191.083 145.302 191.254 145.331 191.425 145.345C198.863 146.218 205.786 144.015 212.11 140.396C212.895 139.939 213.695 139.466 214.466 138.966C219.406 135.676 224.036 131.942 228.298 127.809C229.412 126.765 230.54 125.707 231.71 124.663C232.238 124.191 232.767 123.704 233.309 123.232C241.789 115.766 251.567 108.929 263.116 108.929C263.601 108.929 264.101 108.944 264.601 108.972C272.909 109.373 280.204 113.406 286.328 118.527C288.107 120.006 289.808 121.576 291.424 123.232C291.495 123.304 291.553 123.361 291.624 123.433C292.024 123.833 292.423 124.248 292.794 124.663C297.363 129.454 301.574 134.575 306.542 138.966C307.084 139.466 307.641 139.938 308.212 140.396C309.925 141.821 311.738 143.121 313.636 144.287C314.079 144.558 314.536 144.816 314.993 145.059Z" fill="black"/>
</g>
<g opacity="0.1">
<path opacity="0.1" d="M314.993 123.447V167.2C314.995 168.285 314.894 169.367 314.693 170.433C314.621 170.919 314.507 171.391 314.393 171.863C314.265 172.35 314.108 172.836 313.951 173.308C313.851 173.565 313.765 173.823 313.651 174.066C313.608 174.195 313.551 174.309 313.494 174.438C313.365 174.752 313.223 175.053 313.066 175.353C313.066 175.368 313.065 175.382 313.051 175.382C312.966 175.553 312.88 175.725 312.794 175.882C312.623 176.197 312.437 176.512 312.252 176.812C312.023 177.184 311.795 177.527 311.538 177.871C311.394 178.085 311.236 178.29 311.067 178.486C310.924 178.672 310.767 178.858 310.624 179.043C310.469 179.235 310.302 179.416 310.125 179.587C310.018 179.718 309.904 179.842 309.782 179.959C309.554 180.188 309.325 180.417 309.083 180.631C308.999 180.72 308.908 180.801 308.811 180.874C308.654 181.017 308.483 181.16 308.312 181.303C308.226 181.375 308.126 181.461 308.026 181.532C307.955 181.589 307.884 181.647 307.798 181.718H307.784C307.473 181.965 307.149 182.194 306.813 182.405C306.813 182.407 306.813 182.409 306.812 182.41C306.811 182.412 306.81 182.414 306.809 182.415C306.807 182.416 306.806 182.417 306.804 182.418C306.802 182.419 306.801 182.419 306.799 182.419C306.784 182.419 306.784 182.433 306.77 182.448C306.57 182.591 306.356 182.719 306.142 182.848C306.028 182.92 305.914 182.977 305.799 183.034C305.774 183.058 305.745 183.077 305.714 183.091C305.585 183.163 305.471 183.234 305.343 183.292C305.014 183.463 304.686 183.635 304.343 183.792C303.948 183.98 303.543 184.147 303.13 184.293C303.123 184.301 303.114 184.309 303.105 184.313C303.095 184.318 303.084 184.321 303.073 184.321C302.98 184.361 302.885 184.394 302.787 184.421C302.602 184.493 302.402 184.564 302.216 184.622C302.073 184.665 301.945 184.693 301.802 184.736C301.502 184.836 301.188 184.908 300.874 184.979C300.79 185.005 300.704 185.024 300.617 185.036C300.46 185.079 300.303 185.108 300.146 185.137C300.139 185.136 300.131 185.136 300.123 185.139C300.116 185.141 300.109 185.145 300.103 185.151C300.054 185.148 300.005 185.158 299.961 185.179C299.927 185.177 299.893 185.182 299.861 185.194C299.618 185.237 299.361 185.265 299.104 185.308C298.961 185.322 298.804 185.337 298.647 185.351C298.625 185.363 298.601 185.368 298.576 185.365C298.505 185.365 298.419 185.38 298.348 185.38C298.277 185.392 298.205 185.396 298.133 185.394C298.072 185.406 298.01 185.411 297.948 185.408H297.877C297.805 185.423 297.72 185.423 297.634 185.437C297.348 185.451 297.063 185.451 296.777 185.451H70.5414C66.5225 185.442 62.6186 184.106 59.434 181.65C56.2495 179.194 53.9619 175.754 52.9256 171.863C52.8114 171.391 52.6972 170.919 52.6259 170.433C52.4244 169.367 52.324 168.285 52.326 167.2V141.726C52.8256 141.297 53.311 140.854 53.7964 140.396C54.296 139.924 54.7814 139.452 55.2668 138.966C59.5189 134.532 63.3917 129.747 66.8441 124.663C66.9583 124.505 67.0725 124.362 67.1724 124.205C67.4008 123.876 67.6292 123.561 67.8719 123.232C71.334 118.155 75.2061 113.372 79.4492 108.929C79.9346 108.443 80.4199 107.971 80.9196 107.499C86.23 102.493 92.2827 98.7597 99.4204 97.8728C109.256 96.6428 118.407 101.205 126.501 107.499C127.1 107.971 127.686 108.443 128.271 108.929C131.04 111.189 133.667 113.649 136.151 116.095C136.808 116.753 137.479 117.411 138.149 118.069C139.877 119.8 141.647 121.53 143.431 123.232C143.945 123.719 144.445 124.191 144.959 124.663C152.097 131.285 159.819 137.107 168.999 138.966C169.627 139.095 170.269 139.209 170.911 139.295C174.38 139.758 177.9 139.646 181.332 138.966C181.903 138.866 182.46 138.737 183.031 138.594C191.625 136.463 199.591 131.099 206.8 124.663C207.314 124.191 207.842 123.719 208.356 123.232C212.039 119.814 215.536 116.152 218.805 112.548C219.89 111.347 221.004 110.131 222.117 108.929C222.574 108.457 223.017 107.985 223.459 107.499C228.237 102.282 233.462 97.496 239.076 93.1957C239.747 92.6951 240.418 92.2231 241.089 91.7654C248.641 86.602 256.892 83.2836 265.957 83.8128C273.437 84.2419 280.275 87.3313 286.428 91.7654C287.056 92.2231 287.684 92.6951 288.312 93.1957C292.994 96.9645 297.267 101.217 301.06 105.883C301.502 106.412 301.945 106.955 302.387 107.499C302.616 107.771 302.83 108.057 303.058 108.328L303.529 108.929C307.313 113.664 310.953 118.584 314.821 123.232L314.993 123.447Z" fill="black"/>
</g>
<g opacity="0.1">
<path opacity="0.1" d="M314.993 105.382V167.2C314.995 168.285 314.894 169.367 314.693 170.433C314.621 170.919 314.507 171.391 314.393 171.863C314.265 172.35 314.108 172.836 313.951 173.308C313.851 173.565 313.765 173.823 313.651 174.066C313.608 174.195 313.551 174.309 313.494 174.438C313.365 174.752 313.223 175.053 313.066 175.353C313.066 175.368 313.065 175.382 313.051 175.382C312.966 175.553 312.88 175.725 312.794 175.882C312.623 176.197 312.437 176.512 312.252 176.812C312.023 177.184 311.795 177.527 311.538 177.871C311.394 178.085 311.236 178.29 311.067 178.486C310.924 178.672 310.767 178.858 310.624 179.043C310.469 179.235 310.302 179.416 310.125 179.587C310.018 179.718 309.904 179.842 309.782 179.959C309.554 180.188 309.325 180.417 309.083 180.631C308.999 180.72 308.908 180.801 308.811 180.874C308.654 181.017 308.483 181.16 308.312 181.303C308.226 181.375 308.126 181.461 308.026 181.532C307.955 181.589 307.884 181.647 307.798 181.718H307.784C307.473 181.965 307.149 182.194 306.813 182.405C306.813 182.407 306.813 182.409 306.812 182.41C306.811 182.412 306.81 182.414 306.809 182.415C306.807 182.416 306.806 182.417 306.804 182.418C306.802 182.419 306.801 182.419 306.799 182.419C306.784 182.419 306.784 182.433 306.77 182.448C306.57 182.591 306.356 182.719 306.142 182.848C306.028 182.92 305.914 182.977 305.799 183.034C305.774 183.058 305.745 183.077 305.714 183.091C305.585 183.163 305.471 183.234 305.343 183.292C305.014 183.463 304.686 183.635 304.343 183.792C303.948 183.98 303.543 184.147 303.13 184.293C303.123 184.301 303.114 184.309 303.105 184.313C303.095 184.318 303.084 184.321 303.073 184.321C302.98 184.361 302.885 184.395 302.787 184.421C302.602 184.493 302.402 184.565 302.216 184.622C302.073 184.665 301.945 184.693 301.802 184.736C301.502 184.836 301.188 184.908 300.874 184.979C300.79 185.005 300.704 185.024 300.617 185.036C300.46 185.079 300.303 185.108 300.146 185.137C300.139 185.136 300.131 185.136 300.123 185.139C300.116 185.141 300.109 185.145 300.103 185.151C300.054 185.148 300.005 185.158 299.961 185.179C299.927 185.177 299.893 185.182 299.861 185.194C299.618 185.237 299.361 185.265 299.104 185.308C298.961 185.322 298.804 185.337 298.647 185.351C298.625 185.363 298.601 185.368 298.576 185.365C298.505 185.365 298.419 185.38 298.348 185.38C298.277 185.392 298.205 185.396 298.133 185.394C298.126 185.402 298.116 185.407 298.105 185.408H297.877C297.52 185.437 297.148 185.451 296.777 185.451H70.5414C66.5225 185.442 62.6186 184.106 59.434 181.65C56.2495 179.194 53.9619 175.754 52.9256 171.863C52.8114 171.391 52.6972 170.919 52.6259 170.433C52.4244 169.367 52.324 168.285 52.326 167.2V130.27C53.7679 128.396 55.2144 126.527 56.6657 124.663C57.0369 124.176 57.4081 123.704 57.7792 123.232C59.735 120.715 61.705 118.226 63.732 115.795C65.6735 113.463 67.7149 111.16 69.8419 108.929C70.2988 108.457 70.7555 107.971 71.2266 107.499C76.6422 101.846 82.8621 97.026 89.6847 93.1957C90.6126 92.6808 91.5547 92.2088 92.5112 91.7654C97.5761 89.3425 103.056 87.9104 108.657 87.5459C116.004 87.1783 123.328 88.6273 129.984 91.7654C130.983 92.1945 131.968 92.6808 132.939 93.1957C139.92 96.8001 146.472 101.849 152.61 107.499C153.139 107.957 153.638 108.443 154.152 108.929C159.02 113.506 163.631 118.412 168.028 123.232C168.356 123.59 168.685 123.962 169.013 124.319C169.113 124.434 169.227 124.548 169.327 124.663C173.61 129.383 178.178 134.16 183.031 138.594C183.16 138.723 183.302 138.837 183.445 138.966C183.973 139.452 184.502 139.924 185.044 140.396C186.957 142.098 188.927 143.729 190.926 145.274C195.662 149.011 200.823 152.175 206.3 154.699C207.456 155.229 208.627 155.701 209.812 156.13C216.339 158.627 223.383 159.463 230.311 158.561C233.494 158.12 236.613 157.304 239.605 156.13C240.747 155.701 241.86 155.214 242.959 154.699C250.197 151.267 256.735 146.075 262.93 140.396C263.444 139.924 263.958 139.452 264.472 138.966C267.998 135.648 271.424 132.2 274.807 128.868C276.235 127.466 277.691 126.05 279.19 124.663C279.704 124.191 280.232 123.719 280.76 123.232C282.559 121.616 284.415 120.029 286.328 118.527C291.004 114.693 296.146 111.468 301.631 108.929C302.102 108.715 302.587 108.514 303.058 108.328C303.787 108.028 304.515 107.756 305.243 107.499C308.387 106.37 311.664 105.658 314.993 105.382Z" fill="black"/>
</g>
<path d="M108.714 96.0563C111.079 96.0563 112.996 94.1352 112.996 91.7653C112.996 89.3955 111.079 87.4744 108.714 87.4744C106.349 87.4744 104.431 89.3955 104.431 91.7653C104.431 94.1352 106.349 96.0563 108.714 96.0563Z" fill="white"/>
<path d="M174.38 143.257C176.746 143.257 178.663 141.336 178.663 138.966C178.663 136.596 176.746 134.675 174.38 134.675C172.015 134.675 170.098 136.596 170.098 138.966C170.098 141.336 172.015 143.257 174.38 143.257Z" fill="white"/>
<path d="M262.888 111.79C265.253 111.79 267.17 109.869 267.17 107.499C267.17 105.129 265.253 103.208 262.888 103.208C260.522 103.208 258.605 105.129 258.605 107.499C258.605 109.869 260.522 111.79 262.888 111.79Z" fill="white"/>
<path d="M457.689 144.11H356.707C356.228 144.109 355.753 144.203 355.311 144.386C354.868 144.569 354.466 144.838 354.127 145.177C353.788 145.516 353.519 145.919 353.335 146.362C353.152 146.806 353.058 147.281 353.058 147.761C353.058 148.241 353.152 148.716 353.335 149.159C353.519 149.602 353.788 150.005 354.127 150.344C354.466 150.683 354.868 150.952 355.311 151.135C355.753 151.318 356.228 151.412 356.707 151.411H457.689C458.656 151.411 459.582 151.027 460.266 150.342C460.949 149.658 461.333 148.729 461.333 147.761C461.333 146.792 460.949 145.864 460.266 145.179C459.582 144.495 458.656 144.11 457.689 144.11V144.11Z" fill="#E6E6E6"/>
<path d="M457.689 199.394H356.707C355.74 199.394 354.814 199.778 354.13 200.463C353.447 201.148 353.063 202.076 353.063 203.044C353.063 204.013 353.447 204.941 354.13 205.626C354.814 206.311 355.74 206.695 356.707 206.695H457.689C458.656 206.695 459.582 206.311 460.266 205.626C460.949 204.941 461.333 204.013 461.333 203.044C461.333 202.076 460.949 201.148 460.266 200.463C459.582 199.778 458.656 199.394 457.689 199.394V199.394Z" fill="#E6E6E6"/>
<path d="M457.689 254.677H356.707C355.74 254.677 354.814 255.062 354.13 255.747C353.447 256.431 353.063 257.36 353.063 258.328C353.063 259.296 353.447 260.225 354.13 260.91C354.814 261.594 355.74 261.979 356.707 261.979H457.689C458.656 261.979 459.582 261.594 460.266 260.91C460.949 260.225 461.333 259.296 461.333 258.328C461.333 257.36 460.949 256.431 460.266 255.747C459.582 255.062 458.656 254.677 457.689 254.677Z" fill="#E6E6E6"/>
<path d="M518.877 157.151C523.903 157.151 527.977 153.069 527.977 148.034C527.977 142.999 523.903 138.917 518.877 138.917C513.852 138.917 509.778 142.999 509.778 148.034C509.778 153.069 513.852 157.151 518.877 157.151Z" fill="#F2F2F2"/>
<path d="M517.636 152.779C517.479 152.779 517.324 152.742 517.183 152.672C517.043 152.601 516.921 152.499 516.826 152.373L514.344 149.057C514.264 148.95 514.206 148.829 514.173 148.7C514.14 148.571 514.132 148.436 514.151 148.304C514.17 148.172 514.214 148.045 514.282 147.931C514.35 147.816 514.439 147.716 514.546 147.636C514.652 147.556 514.773 147.498 514.902 147.465C515.031 147.432 515.165 147.424 515.297 147.443C515.428 147.462 515.555 147.507 515.669 147.575C515.784 147.643 515.884 147.733 515.963 147.84L517.588 150.009L521.759 143.74C521.908 143.516 522.139 143.361 522.403 143.308C522.666 143.256 522.939 143.31 523.163 143.459C523.386 143.608 523.541 143.84 523.594 144.104C523.646 144.368 523.592 144.642 523.443 144.865L518.478 152.327C518.389 152.462 518.268 152.574 518.126 152.652C517.985 152.731 517.826 152.774 517.664 152.779L517.636 152.779Z" fill="white"/>
<path d="M518.877 212.435C523.903 212.435 527.977 208.353 527.977 203.317C527.977 198.282 523.903 194.2 518.877 194.2C513.852 194.2 509.778 198.282 509.778 203.317C509.778 208.353 513.852 212.435 518.877 212.435Z" fill="#F2F2F2"/>
<path d="M517.636 208.063C517.479 208.063 517.324 208.026 517.183 207.955C517.043 207.885 516.921 207.783 516.826 207.657L514.344 204.34C514.264 204.234 514.206 204.113 514.173 203.983C514.14 203.854 514.132 203.72 514.151 203.588C514.17 203.456 514.214 203.329 514.282 203.214C514.35 203.1 514.439 203 514.546 202.92C514.652 202.84 514.773 202.781 514.902 202.748C515.031 202.715 515.165 202.708 515.297 202.727C515.428 202.746 515.555 202.791 515.67 202.859C515.784 202.927 515.884 203.017 515.963 203.123L517.588 205.293L521.759 199.024C521.833 198.913 521.928 198.818 522.038 198.744C522.148 198.67 522.272 198.618 522.403 198.592C522.533 198.566 522.667 198.566 522.798 198.592C522.928 198.617 523.052 198.669 523.163 198.743C523.273 198.816 523.368 198.911 523.442 199.022C523.516 199.133 523.568 199.257 523.594 199.388C523.62 199.518 523.62 199.653 523.594 199.783C523.568 199.914 523.517 200.038 523.443 200.149L518.478 207.611C518.389 207.746 518.268 207.857 518.126 207.936C517.985 208.014 517.826 208.058 517.664 208.062L517.636 208.063Z" fill="white"/>
<path d="M518.877 267.718C523.903 267.718 527.977 263.636 527.977 258.601C527.977 253.566 523.903 249.484 518.877 249.484C513.852 249.484 509.778 253.566 509.778 258.601C509.778 263.636 513.852 267.718 518.877 267.718Z" fill="#F2F2F2"/>
<path d="M457.689 88.8264H356.707C355.74 88.8264 354.814 89.2111 354.13 89.8957C353.447 90.5804 353.063 91.509 353.063 92.4772C353.063 93.4455 353.447 94.3741 354.13 95.0587C354.814 95.7434 355.74 96.1281 356.707 96.1281H457.689C458.656 96.1281 459.582 95.7434 460.266 95.0587C460.949 94.3741 461.333 93.4455 461.333 92.4772C461.333 91.509 460.949 90.5804 460.266 89.8957C459.582 89.2111 458.656 88.8264 457.689 88.8264Z" fill="#E6E6E6"/>
<path d="M518.877 101.867C523.903 101.867 527.977 97.7855 527.977 92.7502C527.977 87.715 523.903 83.6331 518.877 83.6331C513.852 83.6331 509.778 87.715 509.778 92.7502C509.778 97.7855 513.852 101.867 518.877 101.867Z" fill="#00B4D8"/>
<path d="M517.636 97.4903C517.479 97.4903 517.324 97.4537 517.183 97.3832C517.043 97.3128 516.921 97.2106 516.826 97.0846L514.344 93.7681C514.264 93.6616 514.206 93.5403 514.173 93.4112C514.14 93.2821 514.132 93.1477 514.151 93.0158C514.17 92.8838 514.214 92.7569 514.282 92.6422C514.35 92.5275 514.439 92.4273 514.546 92.3473C514.652 92.2673 514.773 92.2092 514.902 92.1761C515.031 92.1431 515.165 92.1359 515.297 92.1548C515.428 92.1737 515.555 92.2185 515.669 92.2865C515.784 92.3545 515.884 92.4445 515.963 92.5512L517.588 94.7207L521.759 88.4516C521.833 88.3408 521.927 88.2456 522.038 88.1715C522.148 88.0974 522.272 88.0458 522.403 88.0197C522.533 87.9936 522.667 87.9934 522.798 88.0193C522.928 88.0451 523.052 88.0964 523.163 88.1703C523.273 88.2442 523.368 88.3392 523.442 88.4498C523.516 88.5605 523.568 88.6847 523.594 88.8153C523.62 88.9459 523.62 89.0803 523.594 89.211C523.568 89.3416 523.517 89.4659 523.443 89.5767L518.478 97.0387C518.389 97.1736 518.268 97.2851 518.126 97.3636C517.985 97.4421 517.826 97.4855 517.664 97.49L517.636 97.4903Z" fill="white"/>
<path d="M488.687 101.867C493.712 101.867 497.786 97.7855 497.786 92.7502C497.786 87.715 493.712 83.6331 488.687 83.6331C483.661 83.6331 479.587 87.715 479.587 92.7502C479.587 97.7855 483.661 101.867 488.687 101.867Z" fill="#F2F2F2"/>
<path d="M488.687 157.151C493.712 157.151 497.786 153.069 497.786 148.034C497.786 142.999 493.712 138.917 488.687 138.917C483.661 138.917 479.587 142.999 479.587 148.034C479.587 153.069 483.661 157.151 488.687 157.151Z" fill="#F2F2F2"/>
<path d="M488.687 212.435C493.712 212.435 497.786 208.353 497.786 203.317C497.786 198.282 493.712 194.2 488.687 194.2C483.661 194.2 479.587 198.282 479.587 203.317C479.587 208.353 483.661 212.435 488.687 212.435Z" fill="#F2F2F2"/>
<path d="M488.687 267.718C493.712 267.718 497.786 263.636 497.786 258.601C497.786 253.566 493.712 249.484 488.687 249.484C483.661 249.484 479.587 253.566 479.587 258.601C479.587 263.636 483.661 267.718 488.687 267.718Z" fill="#F2F2F2"/>
<path d="M517.636 263.346C517.479 263.346 517.324 263.31 517.183 263.239C517.043 263.169 516.921 263.067 516.826 262.941L514.344 259.624C514.264 259.518 514.206 259.396 514.173 259.267C514.14 259.138 514.133 259.004 514.152 258.872C514.171 258.74 514.215 258.613 514.283 258.499C514.351 258.384 514.44 258.284 514.546 258.204C514.653 258.124 514.774 258.066 514.903 258.033C515.031 258 515.165 257.993 515.297 258.012C515.428 258.03 515.555 258.075 515.669 258.143C515.784 258.211 515.884 258.301 515.963 258.407L517.588 260.577L521.759 254.308C521.908 254.084 522.139 253.928 522.403 253.876C522.666 253.823 522.939 253.877 523.163 254.026C523.386 254.175 523.541 254.407 523.594 254.671C523.646 254.935 523.592 255.209 523.443 255.433L518.478 262.895C518.389 263.03 518.268 263.141 518.126 263.22C517.984 263.298 517.826 263.341 517.664 263.346L517.636 263.346Z" fill="white"/>
<path d="M504.516 436.697C504.519 436.749 504.51 436.801 504.49 436.849C504.469 436.897 504.438 436.939 504.398 436.973C504.336 437.02 504.263 437.05 504.186 437.06C504.108 437.076 504.026 437.061 503.959 437.019C503.891 436.976 503.843 436.909 503.824 436.831C502.738 433.173 500.079 430.367 497.561 427.616C495.295 425.148 493.068 422.547 491.928 419.338C491.433 418.064 491.214 416.699 491.285 415.333C491.355 413.967 491.714 412.632 492.337 411.416C492.729 410.688 493.184 409.997 493.698 409.35C494.823 407.915 496.16 406.638 497.364 405.282C497.49 405.14 497.616 404.991 497.734 404.849C497.899 404.668 498.049 404.478 498.19 404.289C499.691 402.429 500.734 400.242 501.235 397.904C501.773 395.052 501.855 392.133 501.479 389.256C501.322 387.726 501.104 386.208 500.826 384.699C500.81 384.628 500.803 384.565 500.787 384.502C499.572 378.033 497.364 371.791 494.241 366C494.123 365.787 494.013 365.575 493.895 365.37C493.391 364.455 492.872 363.556 492.321 362.674C492.51 362.54 492.714 362.413 492.919 362.295C494.723 365.222 496.294 368.288 497.616 371.463C499.325 375.537 500.61 379.777 501.448 384.116C501.503 384.352 501.542 384.597 501.581 384.833C501.912 386.654 502.156 388.499 502.305 390.336C502.601 393.218 502.404 396.129 501.723 398.944C501.106 401.178 500.013 403.251 498.521 405.022C498.253 405.361 497.97 405.692 497.671 406.016C496.475 407.324 495.153 408.593 494.075 410.02C493.525 410.737 493.058 411.515 492.683 412.338C491.416 415.176 492.014 418.282 493.415 420.946C495.948 425.795 500.779 429.098 503.352 433.851C503.827 434.727 504.212 435.649 504.5 436.602C504.51 436.633 504.515 436.665 504.516 436.697Z" fill="white"/>
<path d="M501.256 384.917C503.465 384.361 505.405 383.036 506.729 381.179C508.054 379.322 508.676 377.054 508.486 374.78C508.446 374.32 507.73 374.361 507.77 374.822C507.952 376.939 507.372 379.052 506.135 380.778C504.898 382.505 503.086 383.731 501.026 384.237C500.578 384.347 500.811 385.026 501.256 384.917Z" fill="white"/>
<path d="M498.386 404.407C494.369 402.047 491.388 398.256 490.037 393.792C489.903 393.35 489.225 393.581 489.358 394.022C490.773 398.666 493.884 402.603 498.069 405.05C498.468 405.283 498.783 404.638 498.386 404.407V404.407Z" fill="white"/>
<path d="M494.327 365.961C494.296 365.977 494.272 365.984 494.241 366C492.824 366.648 491.212 366.724 489.74 366.213C489.805 365.981 489.887 365.755 489.984 365.535C491.262 365.974 492.658 365.915 493.895 365.37C493.965 365.346 494.028 365.314 494.099 365.283C494.189 365.252 494.287 365.258 494.373 365.299C494.458 365.34 494.524 365.414 494.555 365.504C494.581 365.595 494.572 365.692 494.53 365.777C494.488 365.861 494.415 365.927 494.327 365.961V365.961Z" fill="white"/>
<path d="M455.108 245.163C455.796 244.333 456.294 243.362 456.567 242.318C456.84 241.275 456.881 240.184 456.688 239.122C456.494 238.061 456.071 237.055 455.448 236.175C454.824 235.295 454.016 234.563 453.079 234.03L457.831 208.238L445.304 213.552L442.713 237.23C441.924 238.865 441.761 240.734 442.255 242.482C442.749 244.23 443.866 245.735 445.394 246.713C446.921 247.691 448.754 248.073 450.545 247.788C452.335 247.502 453.959 246.568 455.108 245.163V245.163Z" fill="#FFB6B6"/>
<path d="M462.753 168.825L458.772 155.416L430.7 111.53C429.138 109.702 427.272 108.161 425.184 106.973C421.035 104.597 416.198 103.717 411.48 104.481C406.762 105.245 402.448 107.606 399.257 111.17C396.066 114.735 394.19 119.287 393.943 124.07C393.696 128.852 395.092 133.574 397.898 137.45C398.477 138.26 399.116 139.024 399.81 139.736L436.168 177.307L438.237 179.452L441.51 187.745L442.8 225.561L443.957 225.837L454.146 228.241L455.57 228.58L457.954 216.227L459.449 210.322C460.721 205.287 461.363 200.113 461.361 194.919C461.361 193.318 461.306 191.71 461.18 190.11L462.753 168.825Z" fill="#3F3D56"/>
<path d="M424.162 429.593H414.413L409.776 391.919L424.163 391.92L424.162 429.593Z" fill="#FFB6B6"/>
<path d="M423.902 426.402L413.501 422.168L413.194 422.042L407.45 426.402C404.298 426.401 401.268 427.62 398.991 429.804C396.715 431.988 395.368 434.969 395.231 438.124C395.216 438.297 395.216 438.479 395.216 438.66V439.062H426.648V426.402H423.902Z" fill="#2F2E41"/>
<path d="M405.597 410.11L397.195 415.063L374.129 384.951L386.529 377.641L405.597 410.11Z" fill="#FFB6B6"/>
<path d="M411.4 415.073L410.259 413.126L406.128 406.094L403.98 407.364L403.76 407.49L392.651 409.13L392.32 409.177L389.582 415.854C388.197 416.67 386.986 417.752 386.018 419.037C385.05 420.322 384.344 421.786 383.941 423.344C383.537 424.903 383.444 426.526 383.667 428.12C383.89 429.715 384.424 431.25 385.239 432.637L385.444 432.976L412.533 417.005L411.4 415.073Z" fill="#2F2E41"/>
<path d="M436.508 199.277C441.078 213.088 440.595 228.08 435.409 244.17L434.056 299.483L429.708 334.373C432.33 341.209 433.675 348.471 433.676 355.794C433.657 374.992 432.369 402.264 425.838 415.076H410.381L406.891 358.022L402.728 329.337L402.214 298.598L401.767 271.788L384.96 296.412L368.629 320.34L384.861 347.774L399.024 391.92L384.075 404.533L367.116 372.32L358.897 362.752L336.461 314.089L338.478 307.313C342.63 293.359 348.661 280.038 356.403 267.716V267.716L378.719 215.82L436.508 199.277Z" fill="#2F2E41"/>
<path d="M438.489 194.666L435.94 189.558L436.168 177.307L436.931 135.889C437.023 130.524 436.03 125.196 434.011 120.227C431.992 115.257 428.989 110.749 425.184 106.973C422.926 104.719 420.4 102.752 417.663 101.116L412.187 97.8364L409.417 90.7888L383.878 91.4116L383.823 98.2463L383.799 100.651L374.649 115.266L374.657 115.329L374.846 141.927L375.223 194.871L377.749 203.078L373.933 212.632L375.963 218.718L377.584 218.458L432.171 209.715C434.652 208.918 436.758 207.242 438.095 205.001C438.365 204.563 438.599 204.104 438.796 203.629C439.391 202.201 439.672 200.661 439.619 199.114C439.566 197.567 439.18 196.05 438.489 194.666Z" fill="#3F3D56"/>
<path d="M394.306 82.0225C407.123 82.0225 417.513 71.6121 417.513 58.7703C417.513 45.9284 407.123 35.5181 394.306 35.5181C381.489 35.5181 371.099 45.9284 371.099 58.7703C371.099 71.6121 381.489 82.0225 394.306 82.0225Z" fill="#FFB6B6"/>
<path d="M408.742 78.0375C411.193 76.3096 413.675 73.0202 415.329 70.5577C417.52 67.3205 419.008 63.6581 419.696 59.8079C420.384 55.9577 420.257 52.0056 419.323 48.2076C419.021 46.6881 418.311 45.28 417.269 44.1351C416.737 43.5761 416.041 43.2004 415.283 43.0616C414.524 42.9228 413.741 43.028 413.046 43.3623C413.396 42.3805 413.542 41.3372 413.475 40.2967C413.407 39.2562 413.127 38.2406 412.653 37.3126C411.69 35.4599 410.309 33.8576 408.62 32.6327C405.389 30.2103 401.563 28.7096 397.55 28.2898C393.536 27.87 389.484 28.5467 385.823 30.2483C384.383 30.9413 386.692 25.711 385.181 26.2332C383.682 26.8388 382.006 26.8325 380.512 26.2157C379.075 25.5158 374.404 29.8573 374.931 28.3459C373.855 28.8535 372.924 29.6257 372.226 30.5906C371.528 31.5555 371.085 32.6817 370.939 33.8643C370.792 35.0469 370.947 36.2474 371.388 37.3541C371.829 38.4608 372.542 39.4376 373.462 40.1936C374.673 41.1899 376.177 41.7524 377.5 42.5942C379.82 44.1818 381.479 46.5655 382.165 49.2952C382.85 52.0249 382.515 54.9116 381.222 57.4104C382.589 56.5031 384.094 55.8231 385.677 55.3964C386.472 55.1904 387.304 55.1775 388.105 55.3588C388.906 55.54 389.652 55.9102 390.281 56.4385C390.808 57.027 391.21 57.7173 391.462 58.467C391.714 59.2168 391.81 60.0102 391.745 60.7986C391.714 62.3771 391.361 63.9367 391.341 65.5153C391.281 70.1475 388.928 78.9853 392.545 81.3969C395.4 83.3 405.395 80.3968 408.742 78.0375Z" fill="#2F2E41"/>
<path d="M265.383 115.327C265.932 116.255 266.677 117.052 267.567 117.66C268.456 118.268 269.468 118.674 270.531 118.848C271.594 119.022 272.682 118.96 273.718 118.668C274.755 118.375 275.714 117.858 276.53 117.154L299.178 130.304L298.393 116.698L277.006 106.296C275.734 105.001 274.032 104.219 272.223 104.098C270.414 103.977 268.623 104.525 267.191 105.639C265.758 106.752 264.783 108.353 264.449 110.139C264.116 111.924 264.448 113.77 265.383 115.327V115.327Z" fill="#FFB6B6"/>
<path d="M411.644 111.254C410.765 108.502 409.328 105.962 407.423 103.794C405.517 101.626 403.185 99.8759 400.572 98.6543C397.959 97.4327 395.123 96.7658 392.24 96.6956C389.358 96.6254 386.492 97.1534 383.823 98.2464C383.571 98.3489 383.319 98.4592 383.067 98.5696L332.823 121.486L313.264 119.161L287.945 110.3L287.3 111.301L281.611 120.107L280.816 121.336L307.976 137.426L310.856 138.025C313.364 138.545 315.744 139.556 317.861 140.999C319.978 142.442 321.79 144.29 323.193 146.437L333.72 149.905L374.846 141.927L397.898 137.45L399.205 137.197C403.155 135.674 406.552 132.988 408.95 129.493C411.347 125.997 412.632 121.857 412.635 117.615C412.636 115.456 412.302 113.31 411.644 111.254V111.254Z" fill="#3F3D56"/>
<path d="M528.558 440H254.765C254.517 440 254.279 439.901 254.103 439.725C253.927 439.549 253.829 439.31 253.829 439.061C253.829 438.812 253.927 438.574 254.103 438.398C254.279 438.222 254.517 438.123 254.765 438.123H528.558C528.807 438.123 529.045 438.222 529.221 438.398C529.397 438.574 529.495 438.812 529.495 439.061C529.495 439.31 529.397 439.549 529.221 439.725C529.045 439.901 528.807 440 528.558 440Z" fill="#CCCCCC"/>
<path d="M233.874 220.68H67.5878C66.6224 220.681 65.697 221.066 65.0148 221.751C64.3326 222.435 63.9494 223.363 63.9494 224.331C63.9494 225.298 64.3326 226.226 65.0148 226.91C65.697 227.595 66.6224 227.98 67.5878 227.981H233.874C234.353 227.982 234.827 227.888 235.27 227.705C235.712 227.522 236.115 227.253 236.454 226.914C236.793 226.575 237.061 226.172 237.245 225.729C237.428 225.286 237.523 224.81 237.523 224.331C237.523 223.851 237.428 223.375 237.245 222.932C237.061 222.489 236.793 222.086 236.454 221.747C236.115 221.408 235.712 221.139 235.27 220.956C234.827 220.773 234.353 220.679 233.874 220.68H233.874Z" fill="#E6E6E6"/>
<path d="M295.062 233.716C300.088 233.716 304.161 229.634 304.161 224.598C304.161 219.563 300.088 215.481 295.062 215.481C290.037 215.481 285.963 219.563 285.963 224.598C285.963 229.634 290.037 233.716 295.062 233.716Z" fill="#00B4D8"/>
<path d="M293.821 229.348C293.663 229.348 293.509 229.312 293.368 229.241C293.227 229.171 293.105 229.069 293.011 228.943L290.528 225.626C290.449 225.52 290.391 225.398 290.358 225.269C290.325 225.14 290.317 225.006 290.336 224.874C290.355 224.743 290.4 224.616 290.467 224.501C290.535 224.386 290.625 224.286 290.731 224.206C290.837 224.127 290.958 224.068 291.087 224.035C291.216 224.002 291.35 223.995 291.481 224.014C291.613 224.033 291.74 224.077 291.854 224.145C291.968 224.213 292.068 224.303 292.148 224.409L293.772 226.579L297.943 220.31C298.017 220.199 298.112 220.104 298.222 220.03C298.333 219.956 298.457 219.904 298.587 219.878C298.717 219.852 298.852 219.852 298.982 219.877C299.112 219.903 299.237 219.955 299.347 220.028C299.458 220.102 299.553 220.197 299.627 220.308C299.701 220.419 299.752 220.543 299.778 220.673C299.804 220.804 299.804 220.939 299.779 221.069C299.753 221.2 299.702 221.324 299.628 221.435L294.663 228.897C294.573 229.032 294.452 229.143 294.311 229.222C294.169 229.3 294.011 229.344 293.849 229.348L293.821 229.348Z" fill="white"/>
<path d="M264.871 233.721C269.897 233.721 273.971 229.639 273.971 224.604C273.971 219.568 269.897 215.486 264.871 215.486C259.846 215.486 255.772 219.568 255.772 224.604C255.772 229.639 259.846 233.721 264.871 233.721Z" fill="#F2F2F2"/>
<path d="M233.087 264.826H66.801C65.8356 264.827 64.9102 265.212 64.228 265.897C63.5458 266.581 63.1627 267.509 63.1627 268.477C63.1627 269.444 63.5458 270.372 64.228 271.056C64.9102 271.741 65.8356 272.126 66.801 272.127H233.087C234.053 272.127 234.98 271.743 235.663 271.058C236.347 270.373 236.731 269.445 236.731 268.477C236.731 267.508 236.347 266.58 235.663 265.895C234.98 265.21 234.053 264.826 233.087 264.826H233.087Z" fill="#E6E6E6"/>
<path d="M294.275 277.867C299.301 277.867 303.375 273.785 303.375 268.749C303.375 263.714 299.301 259.632 294.275 259.632C289.25 259.632 285.176 263.714 285.176 268.749C285.176 273.785 289.25 277.867 294.275 277.867Z" fill="#F2F2F2"/>
<path d="M293.034 273.495C292.877 273.495 292.722 273.458 292.581 273.388C292.441 273.317 292.318 273.215 292.224 273.089L289.742 269.772C289.581 269.557 289.512 269.287 289.549 269.021C289.587 268.754 289.729 268.514 289.944 268.353C290.159 268.191 290.429 268.122 290.695 268.16C290.96 268.198 291.2 268.34 291.361 268.556L292.985 270.725L297.157 264.456C297.23 264.345 297.325 264.25 297.436 264.176C297.546 264.102 297.67 264.05 297.8 264.024C297.931 263.998 298.065 263.998 298.195 264.024C298.326 264.05 298.45 264.101 298.56 264.175C298.671 264.249 298.766 264.344 298.84 264.454C298.914 264.565 298.965 264.689 298.991 264.82C299.017 264.95 299.018 265.085 298.992 265.215C298.966 265.346 298.915 265.47 298.841 265.581L293.876 273.043C293.786 273.178 293.666 273.289 293.524 273.368C293.382 273.446 293.224 273.49 293.062 273.494L293.034 273.495Z" fill="white"/>
<path d="M264.085 277.867C269.11 277.867 273.184 273.785 273.184 268.749C273.184 263.714 269.11 259.632 264.085 259.632C259.059 259.632 254.985 263.714 254.985 268.749C254.985 273.785 259.059 277.867 264.085 277.867Z" fill="#F2F2F2"/>
</svg>
