<svg width="100" height="114" viewBox="0 0 100 114" fill="none" xmlns="http://www.w3.org/2000/svg">
<g clip-path="url(#clip0_15_25)">
<path d="M68.9341 43.4783C66.9004 31.3451 62.1038 22.8261 56.5217 22.8261C50.9397 22.8261 46.1431 31.3451 44.1094 43.4783H68.9341ZM43.0575 56.5217C43.0575 59.538 43.2258 62.4321 43.5203 65.2174H69.5091C69.8037 62.4321 69.972 59.538 69.972 56.5217C69.972 53.5054 69.8037 50.6114 69.5091 47.8261H43.5203C43.2258 50.6114 43.0575 53.5054 43.0575 56.5217ZM88.5975 43.4783C84.5863 34.2527 76.4656 27.1196 66.4376 24.2391C69.8598 28.8315 72.216 35.7473 73.4502 43.4783H88.5975ZM46.5919 24.2391C36.5778 27.1196 28.4432 34.2527 24.446 43.4783H39.5933C40.8135 35.7473 43.1697 28.8315 46.5919 24.2391ZM90.0982 47.8261H74.0112C74.3058 50.6793 74.4741 53.6005 74.4741 56.5217C74.4741 59.4429 74.3058 62.3641 74.0112 65.2174H90.0842C90.8555 62.4321 91.2903 59.538 91.2903 56.5217C91.2903 53.5054 90.8555 50.6114 90.0982 47.8261ZM38.5694 56.5217C38.5694 53.6005 38.7377 50.6793 39.0323 47.8261H22.9453C22.1879 50.6114 21.7391 53.5054 21.7391 56.5217C21.7391 59.538 22.1879 62.4321 22.9453 65.2174H39.0182C38.7377 62.3641 38.5694 59.4429 38.5694 56.5217ZM44.1094 69.5652C46.1431 81.6984 50.9397 90.2174 56.5217 90.2174C62.1038 90.2174 66.9004 81.6984 68.9341 69.5652H44.1094ZM66.4516 88.8043C76.4656 85.9239 84.6003 78.7907 88.6115 69.5652H73.4642C72.23 77.2962 69.8738 84.2119 66.4516 88.8043ZM24.446 69.5652C28.4572 78.7907 36.5778 85.9239 46.6059 88.8043C43.1837 84.2119 40.8275 77.2962 39.5933 69.5652H24.446Z" fill="white"/>
</g>
<path fill-rule="evenodd" clip-rule="evenodd" d="M56.5217 100C80.5341 100 100 80.5341 100 56.5217C100 32.5094 80.5341 13.0435 56.5217 13.0435C56.5217 13.0435 56.5217 13.0435 56.5217 13.0435V18.0435C56.5217 18.0435 56.5217 18.0435 56.5217 18.0435C77.7727 18.0435 95 35.2708 95 56.5217C95 77.7727 77.7727 95 56.5217 95V100Z" fill="white"/>
<path fill-rule="evenodd" clip-rule="evenodd" d="M56.5217 0C25.3057 0 0 25.3057 0 56.5217C0 87.7378 25.3057 113.043 56.5217 113.043V103.043C30.8285 103.043 10 82.215 10 56.5217C10 30.8285 30.8285 10 56.5217 10V0Z" fill="#023E8A"/>
<defs>
<clipPath id="clip0_15_25">
<rect width="69.5652" height="69.5652" fill="white" transform="translate(21.7391 21.7391)"/>
</clipPath>
</defs>
</svg>
