<svg width="60" height="60" viewBox="0 0 60 60" fill="none" xmlns="http://www.w3.org/2000/svg">
<path d="M47.5 5C47.5 2.24 45.26 0 42.5 0H17.5C14.74 0 12.5 2.24 12.5 5V55C12.5 57.76 14.74 60 17.5 60H42.5C45.26 60 47.5 57.76 47.5 55V5ZM26.25 5H33.75C34.44 5 35 5.56 35 6.25C35 6.94 34.44 7.5 33.75 7.5H26.25C25.56 7.5 25 6.94 25 6.25C25 5.56 25.56 5 26.25 5ZM30 55C28.6175 55 27.5 53.88 27.5 52.5C27.5 51.12 28.6175 50 30 50C31.38 50 32.4975 51.12 32.4975 52.5C32.4975 53.88 31.38 55 30 55ZM42.5 47.5H17.5V12.44H42.5V47.5Z" fill="#1D8C86"/>
</svg>
