<svg id="visual" viewBox="0 0 900 600" width="900" height="600" xmlns="http://www.w3.org/2000/svg" xmlns:xlink="http://www.w3.org/1999/xlink" version="1.1"><path d="M0 187L25 187C50 187 100 187 150 179C200 171 250 155 300 141C350 127 400 115 450 123C500 131 550 159 600 164C650 169 700 151 750 139C800 127 850 121 875 118L900 115L900 0L875 0C850 0 800 0 750 0C700 0 650 0 600 0C550 0 500 0 450 0C400 0 350 0 300 0C250 0 200 0 150 0C100 0 50 0 25 0L0 0Z" fill="#ffffff"></path><path d="M0 427L25 428C50 429 100 431 150 414C200 397 250 361 300 344C350 327 400 329 450 342C500 355 550 379 600 375C650 371 700 339 750 319C800 299 850 291 875 287L900 283L900 113L875 116C850 119 800 125 750 137C700 149 650 167 600 162C550 157 500 129 450 121C400 113 350 125 300 139C250 153 200 169 150 177C100 185 50 185 25 185L0 185Z" fill="#00b4d8"></path><path d="M0 601L25 601C50 601 100 601 150 601C200 601 250 601 300 601C350 601 400 601 450 601C500 601 550 601 600 601C650 601 700 601 750 601C800 601 850 601 875 601L900 601L900 281L875 285C850 289 800 297 750 317C700 337 650 369 600 373C550 377 500 353 450 340C400 327 350 325 300 342C250 359 200 395 150 412C100 429 50 427 25 426L0 425Z" fill="#ffffff"></path></svg>