<svg width="58" height="64" viewBox="0 0 58 64" fill="none" xmlns="http://www.w3.org/2000/svg">
<g id="web-logo-design">
<g id="logo" clip-path="url(#clip0)">
<path id="Vector" fill-rule="evenodd" clip-rule="evenodd" d="M32.0356 10.6667C43.7938 10.6862 53.3333 20.2364 53.3333 32C53.3333 43.7742 43.776 53.3333 32 53.3333C20.2258 53.3333 10.6667 43.7742 10.6667 32C10.6667 20.2364 20.208 10.6862 31.9662 10.6667H32.0356ZM38.6027 39.1111H25.3991C26.5351 46.6951 29.3849 51.5556 32 51.5556C34.6169 51.5556 37.4667 46.6951 38.6027 39.1111V39.1111ZM50.2204 39.1111H40.4018C39.6444 44.4178 38.0533 48.7147 35.984 51.1484C42.5067 49.7973 47.8436 45.1929 50.2204 39.1111ZM23.6 39.1111H13.7796C16.1582 45.1929 21.4951 49.7973 28.0178 51.1484C25.9484 48.7147 24.3573 44.4178 23.6 39.1111ZM23.3813 26.6667H13.184C12.5956 28.7396 11.8667 32.6916 13.184 37.3333H23.3813C23.0471 34.1084 22.9991 30.3556 23.3813 26.6667ZM38.832 26.6667H25.1698C24.8231 29.8667 24.7698 33.648 25.1698 37.3333H38.832C39.1804 34.1138 39.2302 30.3467 38.832 26.6667ZM50.8178 26.6667H40.6204C40.7307 27.7191 41.168 32.0338 40.6204 37.3333H50.8178C52.1351 32.6898 51.4062 28.7378 50.8178 26.6667ZM28.0178 12.8516C21.4951 14.2027 16.1582 18.8071 13.7796 24.8889H23.6C24.3573 19.5822 25.9484 15.2836 28.0178 12.8516ZM38.6027 24.8889C37.4667 17.3049 34.6169 12.4444 32 12.4444C29.3849 12.4444 26.5351 17.3049 25.3991 24.8889H38.6027ZM35.984 12.8516C38.0533 15.2836 39.6444 19.5822 40.4018 24.8889H50.2204C47.8436 18.8071 42.5067 14.2027 35.984 12.8516" fill="white"/>
</g>
<path id="circle2" fill-rule="evenodd" clip-rule="evenodd" d="M32 0C14.3269 0 0 14.3269 0 32C0 49.6731 14.3269 64 32 64V58C17.6406 58 6 46.3594 6 32C6 17.6406 17.6406 6 32 6V0Z" fill="#1D6460"/>
<path id="circle1" fill-rule="evenodd" clip-rule="evenodd" d="M32 57.5975C32.1183 57.5992 32.2368 57.6 32.3556 57.6C46.2977 57.6 57.6 46.2977 57.6 32.3556C57.6 18.4134 46.2977 7.11111 32.3556 7.11111C32.2368 7.11111 32.1183 7.11193 32 7.11357V10.1139C32.1183 10.112 32.2368 10.1111 32.3556 10.1111C44.6408 10.1111 54.6 20.0703 54.6 32.3556C54.6 44.6408 44.6408 54.6 32.3556 54.6C32.2368 54.6 32.1183 54.5991 32 54.5972V57.5975Z" fill="white"/>
</g>
<defs>
<clipPath id="clip0">
<rect width="42.6667" height="42.6667" fill="white" transform="translate(10.6667 10.6667)"/>
</clipPath>
</defs>
</svg>
